<svg width="138" height="193" viewBox="0 0 138 193" fill="none" xmlns="http://www.w3.org/2000/svg">
<rect width="137.269" height="192.177" rx="5.49077" fill="#EAEAEA"/>
<rect x="5.0686" y="4.48425" width="127.555" height="184.17" rx="5.49077" fill="#EAEAEA"/>
<path d="M7.89592 23.491V22.0502H11.3749V11.9823L7.89592 14.5827V12.8257L10.795 10.6645H12.9562V22.0502H15.8026V23.491H7.89592ZM22.1211 23.6667C21.3363 23.6667 20.6511 23.5144 20.0654 23.2098C19.4914 22.8936 19.0463 22.4543 18.73 21.8921C18.4138 21.3181 18.2556 20.6504 18.2556 19.889V14.2665C18.2556 13.4934 18.4138 12.8257 18.73 12.2634C19.0463 11.7012 19.4914 11.2678 20.0654 10.9632C20.6511 10.6469 21.3363 10.4888 22.1211 10.4888C22.9177 10.4888 23.6029 10.6469 24.1769 10.9632C24.7509 11.2678 25.196 11.7012 25.5122 12.2634C25.8285 12.8257 25.9867 13.4934 25.9867 14.2665V19.889C25.9867 20.6504 25.8285 21.3181 25.5122 21.8921C25.196 22.4543 24.745 22.8936 24.1593 23.2098C23.5854 23.5144 22.906 23.6667 22.1211 23.6667ZM22.1211 22.3137C22.824 22.3137 23.3862 22.0912 23.8079 21.6461C24.2413 21.1892 24.458 20.6036 24.458 19.889V14.2665C24.458 13.5519 24.2413 12.9721 23.8079 12.527C23.3862 12.0702 22.824 11.8417 22.1211 11.8417C21.4183 11.8417 20.8502 12.0702 20.4168 12.527C19.9951 12.9721 19.7843 13.5519 19.7843 14.2665V19.889C19.7843 20.6036 19.9951 21.1892 20.4168 21.6461C20.8502 22.0912 21.4183 22.3137 22.1211 22.3137ZM22.1211 18.1144C21.8049 18.1144 21.5472 18.0148 21.348 17.8157C21.1606 17.6166 21.0669 17.353 21.0669 17.025C21.0669 16.7088 21.1606 16.4569 21.348 16.2695C21.5472 16.0704 21.8049 15.9708 22.1211 15.9708C22.4374 15.9708 22.6893 16.0704 22.8767 16.2695C23.0758 16.4569 23.1754 16.7088 23.1754 17.025C23.1754 17.353 23.0758 17.6166 22.8767 17.8157C22.6893 18.0148 22.4374 18.1144 22.1211 18.1144Z" fill="#660000"/>
<path d="M130.071 169.052V170.493H126.592V180.561L130.071 177.961V179.718L127.172 181.879H125.011V170.493H122.164V169.052H130.071ZM115.846 168.877C116.63 168.877 117.316 169.029 117.901 169.334C118.475 169.65 118.92 170.089 119.237 170.651C119.553 171.225 119.711 171.893 119.711 172.654V178.277C119.711 179.05 119.553 179.718 119.237 180.28C118.92 180.842 118.475 181.276 117.901 181.58C117.316 181.897 116.63 182.055 115.846 182.055C115.049 182.055 114.364 181.897 113.79 181.58C113.216 181.276 112.771 180.842 112.455 180.28C112.138 179.718 111.98 179.05 111.98 178.277V172.654C111.98 171.893 112.138 171.225 112.455 170.651C112.771 170.089 113.222 169.65 113.807 169.334C114.381 169.029 115.061 168.877 115.846 168.877ZM115.846 170.23C115.143 170.23 114.581 170.452 114.159 170.897C113.725 171.354 113.509 171.94 113.509 172.654V178.277C113.509 178.992 113.725 179.571 114.159 180.016C114.581 180.473 115.143 180.702 115.846 180.702C116.548 180.702 117.117 180.473 117.55 180.016C117.972 179.571 118.183 178.992 118.183 178.277V172.654C118.183 171.94 117.972 171.354 117.55 170.897C117.117 170.452 116.548 170.23 115.846 170.23ZM115.846 174.429C116.162 174.429 116.42 174.529 116.619 174.728C116.806 174.927 116.9 175.19 116.9 175.518C116.9 175.835 116.806 176.087 116.619 176.274C116.42 176.473 116.162 176.573 115.846 176.573C115.529 176.573 115.278 176.473 115.09 176.274C114.891 176.087 114.791 175.835 114.791 175.518C114.791 175.19 114.891 174.927 115.09 174.728C115.278 174.529 115.529 174.429 115.846 174.429Z" fill="#660000"/>
<path d="M16.0133 43.28L9.26987 36.1899L16.0133 29.147L22.7567 36.1899L16.0133 43.28Z" fill="#660000"/>
<path d="M121.584 164.992L114.841 157.902L121.584 150.859L128.327 157.902L121.584 164.992Z" fill="#660000"/>
<path d="M35.9187 53.7582L23.2369 40.4244L35.9187 27.1795L48.6004 40.4244L35.9187 53.7582Z" fill="#660000"/>
<path d="M35.9187 91.6446L23.2369 78.3108L35.9187 65.0659L48.6004 78.3108L35.9187 91.6446Z" fill="#660000"/>
<path d="M68.8634 72.9759L56.1816 59.6421L68.8634 46.3972L81.5451 59.6421L68.8634 72.9759Z" fill="#660000"/>
<path d="M102.357 166.594L89.6754 153.26L102.357 140.015L115.039 153.26L102.357 166.594Z" fill="#660000"/>
<path d="M102.357 129.256L89.6754 115.923L102.357 102.678L115.039 115.923L102.357 129.256Z" fill="#660000"/>
<path d="M102.357 91.6446L89.6754 78.3108L102.357 65.0659L115.039 78.3108L102.357 91.6446Z" fill="#660000"/>
<path d="M102.357 54.0328L89.6754 40.699L102.357 27.454L115.039 40.699L102.357 54.0328Z" fill="#660000"/>
<path d="M68.5889 146.278L55.9071 132.944L68.5889 119.699L81.2706 132.944L68.5889 146.278Z" fill="#660000"/>
<path d="M35.9187 166.594L23.2369 153.26L35.9187 140.015L48.6004 153.26L35.9187 166.594Z" fill="#660000"/>
<path d="M35.9187 129.256L23.2369 115.923L35.9187 102.678L48.6004 115.923L35.9187 129.256Z" fill="#660000"/>
</svg>
