<svg width="138" height="193" viewBox="0 0 138 193" fill="none" xmlns="http://www.w3.org/2000/svg">
<rect width="137.269" height="192.177" rx="5.49077" fill="#EAEAEA"/>
<rect x="5.0686" y="4.48425" width="127.555" height="184.17" rx="5.49077" fill="#EAEAEA"/>
<path d="M7.89592 23.491V22.0502H11.3749V11.9823L7.89592 14.5827V12.8257L10.795 10.6645H12.9562V22.0502H15.8026V23.491H7.89592ZM22.1211 23.6667C21.3363 23.6667 20.6511 23.5144 20.0654 23.2098C19.4914 22.8936 19.0463 22.4543 18.73 21.8921C18.4138 21.3181 18.2556 20.6504 18.2556 19.889V14.2665C18.2556 13.4934 18.4138 12.8257 18.73 12.2634C19.0463 11.7012 19.4914 11.2678 20.0654 10.9632C20.6511 10.6469 21.3363 10.4888 22.1211 10.4888C22.9177 10.4888 23.6029 10.6469 24.1769 10.9632C24.7509 11.2678 25.196 11.7012 25.5122 12.2634C25.8285 12.8257 25.9867 13.4934 25.9867 14.2665V19.889C25.9867 20.6504 25.8285 21.3181 25.5122 21.8921C25.196 22.4543 24.745 22.8936 24.1593 23.2098C23.5854 23.5144 22.906 23.6667 22.1211 23.6667ZM22.1211 22.3137C22.824 22.3137 23.3862 22.0912 23.8079 21.6461C24.2413 21.1892 24.458 20.6036 24.458 19.889V14.2665C24.458 13.5519 24.2413 12.9721 23.8079 12.527C23.3862 12.0702 22.824 11.8417 22.1211 11.8417C21.4183 11.8417 20.8502 12.0702 20.4168 12.527C19.9951 12.9721 19.7843 13.5519 19.7843 14.2665V19.889C19.7843 20.6036 19.9951 21.1892 20.4168 21.6461C20.8502 22.0912 21.4183 22.3137 22.1211 22.3137ZM22.1211 18.1144C21.8049 18.1144 21.5472 18.0148 21.348 17.8157C21.1606 17.6166 21.0669 17.353 21.0669 17.025C21.0669 16.7088 21.1606 16.4569 21.348 16.2695C21.5472 16.0704 21.8049 15.9708 22.1211 15.9708C22.4374 15.9708 22.6893 16.0704 22.8767 16.2695C23.0758 16.4569 23.1754 16.7088 23.1754 17.025C23.1754 17.353 23.0758 17.6166 22.8767 17.8157C22.6893 18.0148 22.4374 18.1144 22.1211 18.1144Z" fill="#660000"/>
<path d="M130.071 169.052V170.493H126.592V180.561L130.071 177.961V179.718L127.172 181.879H125.011V170.493H122.164V169.052H130.071ZM115.846 168.877C116.63 168.877 117.316 169.029 117.901 169.334C118.475 169.65 118.92 170.089 119.237 170.651C119.553 171.225 119.711 171.893 119.711 172.654V178.277C119.711 179.05 119.553 179.718 119.237 180.28C118.92 180.842 118.475 181.276 117.901 181.58C117.316 181.897 116.63 182.055 115.846 182.055C115.049 182.055 114.364 181.897 113.79 181.58C113.216 181.276 112.771 180.842 112.455 180.28C112.138 179.718 111.98 179.05 111.98 178.277V172.654C111.98 171.893 112.138 171.225 112.455 170.651C112.771 170.089 113.222 169.65 113.807 169.334C114.381 169.029 115.061 168.877 115.846 168.877ZM115.846 170.23C115.143 170.23 114.581 170.452 114.159 170.897C113.725 171.354 113.509 171.94 113.509 172.654V178.277C113.509 178.992 113.725 179.571 114.159 180.016C114.581 180.473 115.143 180.702 115.846 180.702C116.548 180.702 117.117 180.473 117.55 180.016C117.972 179.571 118.183 178.992 118.183 178.277V172.654C118.183 171.94 117.972 171.354 117.55 170.897C117.117 170.452 116.548 170.23 115.846 170.23ZM115.846 174.429C116.162 174.429 116.42 174.529 116.619 174.728C116.806 174.927 116.9 175.19 116.9 175.518C116.9 175.835 116.806 176.087 116.619 176.274C116.42 176.473 116.162 176.573 115.846 176.573C115.529 176.573 115.278 176.473 115.09 176.274C114.891 176.087 114.791 175.835 114.791 175.518C114.791 175.19 114.891 174.927 115.09 174.728C115.278 174.529 115.529 174.429 115.846 174.429Z" fill="#660000"/>
<path d="M35.3845 87.7135C35.5405 87.8057 35.7269 87.8552 35.9181 87.8552C36.1092 87.8552 36.2956 87.8057 36.4516 87.7135L35.9187 87.085L36.4529 87.7135L36.4627 87.7074L36.4885 87.692L36.587 87.6324C36.6723 87.581 36.7934 87.5061 36.9501 87.4075C38.779 86.2556 40.5054 84.9945 42.1156 83.6342C43.5285 82.4346 44.9649 81.0327 46.0529 79.5456C47.1359 78.0666 47.9187 76.4398 47.9187 74.8089C47.9187 72.873 47.1987 71.3601 45.9249 70.3331C44.6572 69.3123 42.9464 68.8552 41.1495 68.8552C39.0264 68.8552 37.1519 69.7107 35.9187 71.0294C34.6855 69.7107 32.8098 68.8552 30.6879 68.8552C26.8972 68.8552 23.9187 71.5656 23.9187 74.8089C23.9187 76.4398 24.7027 78.0656 25.7845 79.5456C26.8725 81.0327 28.3089 82.4346 29.7218 83.6352C31.4385 85.0845 33.2868 86.4209 35.2504 87.6324L35.3489 87.692L35.3747 87.7074L35.3845 87.7135Z" fill="#660000"/>
<path d="M68.3292 69.0448C68.4852 69.137 68.6717 69.1865 68.8628 69.1865C69.0539 69.1865 69.2404 69.137 69.3963 69.0448L68.8634 68.4163L69.3976 69.0448L69.4074 69.0387L69.4333 69.0233L69.5317 68.9637C69.617 68.9123 69.7381 68.8374 69.8948 68.7388C71.7237 67.5869 73.4501 66.3258 75.0603 64.9655C76.4733 63.7659 77.9096 62.364 78.9976 60.8769C80.0806 59.3979 80.8634 57.7711 80.8634 56.1402C80.8634 54.2043 80.1434 52.6914 78.8696 51.6644C77.6019 50.6436 75.8911 50.1865 74.0942 50.1865C71.9711 50.1865 70.0966 51.042 68.8634 52.3607C67.6302 51.042 65.7545 50.1865 63.6326 50.1865C59.8419 50.1865 56.8634 52.8969 56.8634 56.1402C56.8634 57.7711 57.6474 59.3969 58.7292 60.8769C59.8172 62.364 61.2536 63.7659 62.6665 64.9665C64.3832 66.4158 66.2315 67.7522 68.1951 68.9637L68.2936 69.0233L68.3194 69.0387L68.3292 69.0448Z" fill="#660000"/>
<path d="M101.823 143.946C101.979 143.854 102.165 143.804 102.357 143.804C102.548 143.804 102.734 143.854 102.89 143.946L102.357 144.574L102.891 143.946L102.901 143.952L102.927 143.967L103.025 144.027C103.111 144.078 103.232 144.153 103.389 144.252C105.217 145.404 106.944 146.665 108.554 148.025C109.967 149.225 111.403 150.627 112.491 152.114C113.574 153.593 114.357 155.22 114.357 156.851C114.357 158.786 113.637 160.299 112.363 161.326C111.096 162.347 109.385 162.804 107.588 162.804C105.465 162.804 103.59 161.949 102.357 160.63C101.124 161.949 99.2483 162.804 97.1264 162.804C93.3356 162.804 90.3572 160.094 90.3572 156.851C90.3572 155.22 91.1412 153.594 92.223 152.114C93.311 150.627 94.7473 149.225 96.1603 148.024C97.8769 146.575 99.7253 145.239 101.689 144.027L101.787 143.967L101.813 143.952L101.823 143.946Z" fill="#660000"/>
<path d="M101.823 106.609C101.979 106.517 102.165 106.467 102.357 106.467C102.548 106.467 102.734 106.517 102.89 106.609L102.357 107.237L102.891 106.609L102.901 106.615L102.927 106.63L103.025 106.69C103.111 106.741 103.232 106.816 103.389 106.915C105.217 108.067 106.944 109.328 108.554 110.688C109.967 111.888 111.403 113.29 112.491 114.777C113.574 116.256 114.357 117.882 114.357 119.513C114.357 121.449 113.637 122.962 112.363 123.989C111.096 125.01 109.385 125.467 107.588 125.467C105.465 125.467 103.59 124.612 102.357 123.293C101.124 124.612 99.2483 125.467 97.1264 125.467C93.3356 125.467 90.3572 122.757 90.3572 119.513C90.3572 117.882 91.1412 116.257 92.223 114.777C93.311 113.29 94.7473 111.888 96.1603 110.687C97.8769 109.238 99.7253 107.901 101.689 106.69L101.787 106.63L101.813 106.615L101.823 106.609Z" fill="#660000"/>
<path d="M101.823 87.7135C101.979 87.8057 102.165 87.8552 102.357 87.8552C102.548 87.8552 102.734 87.8057 102.89 87.7135L102.357 87.085L102.891 87.7135L102.901 87.7074L102.927 87.692L103.025 87.6324C103.111 87.581 103.232 87.5061 103.389 87.4075C105.217 86.2556 106.944 84.9945 108.554 83.6342C109.967 82.4346 111.403 81.0327 112.491 79.5456C113.574 78.0666 114.357 76.4398 114.357 74.8089C114.357 72.873 113.637 71.3601 112.363 70.3331C111.096 69.3123 109.385 68.8552 107.588 68.8552C105.465 68.8552 103.59 69.7107 102.357 71.0294C101.124 69.7107 99.2483 68.8552 97.1264 68.8552C93.3356 68.8552 90.3572 71.5656 90.3572 74.8089C90.3572 76.4398 91.1412 78.0656 92.223 79.5456C93.311 81.0327 94.7473 82.4346 96.1603 83.6352C97.8769 85.0845 99.7253 86.4209 101.689 87.6324L101.787 87.692L101.813 87.7074L101.823 87.7135Z" fill="#660000"/>
<path d="M101.823 50.1017C101.979 50.1939 102.165 50.2434 102.357 50.2434C102.548 50.2434 102.734 50.1939 102.89 50.1017L102.357 49.4732L102.891 50.1017L102.901 50.0955L102.927 50.0801L103.025 50.0206C103.111 49.9692 103.232 49.8942 103.389 49.7957C105.217 48.6438 106.944 47.3827 108.554 46.0223C109.967 44.8228 111.403 43.4209 112.491 41.9337C113.574 40.4548 114.357 38.828 114.357 37.1971C114.357 35.2611 113.637 33.7483 112.363 32.7213C111.096 31.7004 109.385 31.2434 107.588 31.2434C105.465 31.2434 103.59 32.0989 102.357 33.4176C101.124 32.0989 99.2483 31.2434 97.1264 31.2434C93.3356 31.2434 90.3572 33.9537 90.3572 37.1971C90.3572 38.828 91.1412 40.4538 92.223 41.9337C93.311 43.4209 94.7473 44.8228 96.1603 46.0234C97.8769 47.4727 99.7253 48.809 101.689 50.0206L101.787 50.0801L101.813 50.0955L101.823 50.1017Z" fill="#660000"/>
<path d="M68.0547 123.63C68.2107 123.538 68.3971 123.488 68.5883 123.488C68.7794 123.488 68.9658 123.538 69.1218 123.63L68.5889 124.259L69.123 123.63L69.1329 123.636L69.1587 123.652L69.2572 123.711C69.3425 123.763 69.4635 123.838 69.6203 123.936C71.4492 125.088 73.1755 126.349 74.7858 127.709C76.1987 128.909 77.635 130.311 78.723 131.798C79.8061 133.277 80.5889 134.904 80.5889 136.535C80.5889 138.471 79.8689 139.983 78.595 141.011C77.3273 142.031 75.6166 142.488 73.8196 142.488C71.6966 142.488 69.8221 141.633 68.5889 140.314C67.3556 141.633 65.4799 142.488 63.3581 142.488C59.5673 142.488 56.5889 139.778 56.5889 136.535C56.5889 134.904 57.3729 133.278 58.4547 131.798C59.5427 130.311 60.979 128.909 62.3919 127.708C64.1086 126.259 65.957 124.923 67.9206 123.711L68.019 123.652L68.0449 123.636L68.0547 123.63Z" fill="#660000"/>
<path d="M35.3845 143.946C35.5405 143.854 35.7269 143.804 35.9181 143.804C36.1092 143.804 36.2956 143.854 36.4516 143.946L35.9187 144.574L36.4529 143.946L36.4627 143.952L36.4885 143.967L36.587 144.027C36.6723 144.078 36.7934 144.153 36.9501 144.252C38.779 145.404 40.5054 146.665 42.1156 148.025C43.5285 149.225 44.9649 150.627 46.0529 152.114C47.1359 153.593 47.9187 155.22 47.9187 156.851C47.9187 158.786 47.1987 160.299 45.9249 161.326C44.6572 162.347 42.9464 162.804 41.1495 162.804C39.0264 162.804 37.1519 161.949 35.9187 160.63C34.6855 161.949 32.8098 162.804 30.6879 162.804C26.8972 162.804 23.9187 160.094 23.9187 156.851C23.9187 155.22 24.7027 153.594 25.7845 152.114C26.8725 150.627 28.3089 149.225 29.7218 148.024C31.4385 146.575 33.2868 145.239 35.2504 144.027L35.3489 143.967L35.3747 143.952L35.3845 143.946Z" fill="#660000"/>
<path d="M35.3845 106.609C35.5405 106.517 35.7269 106.467 35.9181 106.467C36.1092 106.467 36.2956 106.517 36.4516 106.609L35.9187 107.237L36.4529 106.609L36.4627 106.615L36.4885 106.63L36.587 106.69C36.6723 106.741 36.7934 106.816 36.9501 106.915C38.779 108.067 40.5054 109.328 42.1156 110.688C43.5285 111.888 44.9649 113.29 46.0529 114.777C47.1359 116.256 47.9187 117.882 47.9187 119.513C47.9187 121.449 47.1987 122.962 45.9249 123.989C44.6572 125.01 42.9464 125.467 41.1495 125.467C39.0264 125.467 37.1519 124.612 35.9187 123.293C34.6855 124.612 32.8098 125.467 30.6879 125.467C26.8972 125.467 23.9187 122.757 23.9187 119.513C23.9187 117.882 24.7027 116.257 25.7845 114.777C26.8725 113.29 28.3089 111.888 29.7218 110.687C31.4385 109.238 33.2868 107.901 35.2504 106.69L35.3489 106.63L35.3747 106.615L35.3845 106.609Z" fill="#660000"/>
<path d="M15.6884 41.918C15.7794 41.9713 15.8881 42 15.9996 42C16.1111 42 16.2199 41.9713 16.3109 41.918L16 41.5541L16.3116 41.918L16.3173 41.9144L16.3324 41.9055L16.3898 41.871C16.4396 41.8413 16.5102 41.7979 16.6016 41.7408C17.6685 41.0739 18.6756 40.3438 19.6149 39.5562C20.4391 38.8617 21.2769 38.0501 21.9116 37.1891C22.5434 36.3329 23 35.3911 23 34.4469C23 33.3261 22.58 32.4502 21.8369 31.8556C21.0974 31.2646 20.0995 31 19.0513 31C17.8128 31 16.7194 31.4953 16 32.2588C15.2806 31.4953 14.1865 31 12.9487 31C10.7374 31 9 32.5691 9 34.4469C9 35.3911 9.45733 36.3323 10.0884 37.1891C10.7231 38.0501 11.5609 38.8617 12.3851 39.5568C13.3865 40.3959 14.4647 41.1696 15.6102 41.871L15.6676 41.9055L15.6827 41.9144L15.6884 41.918Z" fill="#660000"/>
<path d="M121.688 153.082C121.779 153.029 121.888 153 122 153C122.111 153 122.22 153.029 122.311 153.082L122 153.446L122.312 153.082L122.317 153.086L122.332 153.095L122.39 153.129C122.44 153.159 122.51 153.202 122.602 153.259C123.669 153.926 124.676 154.656 125.615 155.444C126.439 156.138 127.277 156.95 127.912 157.811C128.543 158.667 129 159.609 129 160.553C129 161.674 128.58 162.55 127.837 163.144C127.097 163.735 126.099 164 125.051 164C123.813 164 122.719 163.505 122 162.741C121.281 163.505 120.186 164 118.949 164C116.737 164 115 162.431 115 160.553C115 159.609 115.457 158.668 116.088 157.811C116.723 156.95 117.561 156.138 118.385 155.443C119.387 154.604 120.465 153.83 121.61 153.129L121.668 153.095L121.683 153.086L121.688 153.082Z" fill="#660000"/>
<path d="M35.4658 49.8583C35.6218 49.9505 35.8082 50 35.9994 50C36.1905 50 36.3769 49.9505 36.5329 49.8583L36 49.2298L36.5342 49.8583L36.544 49.8521L36.5698 49.8367L36.6683 49.7772C36.7536 49.7258 36.8747 49.6508 37.0314 49.5522C38.8603 48.4004 40.5867 47.1393 42.1969 45.7789C43.6098 44.5794 45.0462 43.1775 46.1342 41.6903C47.2172 40.2114 48 38.5846 48 36.9537C48 35.0177 47.28 33.5049 46.0062 32.4779C44.7385 31.457 43.0277 31 41.2308 31C39.1077 31 37.2332 31.8555 36 33.1742C34.7668 31.8555 32.8911 31 30.7692 31C26.9785 31 24 33.7103 24 36.9537C24 38.5846 24.784 40.2104 25.8658 41.6903C26.9538 43.1775 28.3902 44.5794 29.8031 45.78C31.5198 47.2293 33.3681 48.5656 35.3317 49.7772L35.4302 49.8367L35.456 49.8521L35.4658 49.8583Z" fill="#660000"/>
</svg>
