<svg width="138" height="193" viewBox="0 0 138 193" fill="none" xmlns="http://www.w3.org/2000/svg">
<rect width="137.269" height="192.177" rx="5.49077" fill="#EAEAEA"/>
<rect x="5.06824" y="4.48413" width="127.555" height="184.17" rx="5.49077" fill="#EAEAEA"/>
<path d="M21.7224 32.3558C18.7115 30.5558 17.6731 29.1154 16.9692 28C16.2642 29.1154 15.2268 30.5558 12.216 32.3558C7.08141 35.4249 11.9143 39.7078 16.1637 37.3506C15.8869 38.8135 14.942 39.88 13.9822 40.3396V40.812H19.9561V40.3396C18.9963 39.88 18.0514 38.8135 17.7746 37.3506C22.0241 39.7078 26.8569 35.4249 21.7224 32.3558Z" fill="black"/>
<path d="M44.3434 38.1876C39.3751 35.2174 37.6616 32.8405 36.5 31C35.3368 32.8405 33.6249 35.2174 28.6566 38.1876C20.184 43.252 28.1588 50.3194 35.1709 46.4296C34.7141 48.8436 33.155 50.6035 31.5712 51.3619V52.1414H41.4288V51.3619C39.845 50.6035 38.2859 48.8436 37.8291 46.4296C44.8412 50.3194 52.816 43.252 44.3434 38.1876Z" fill="black"/>
<path d="M44.3434 75.1876C39.3751 72.2174 37.6616 69.8405 36.5 68C35.3368 69.8405 33.6249 72.2174 28.6566 75.1876C20.184 80.252 28.1588 87.3194 35.1709 83.4296C34.7141 85.8436 33.155 87.6035 31.5712 88.3619V89.1414H41.4288V88.3619C39.845 87.6035 38.2859 85.8436 37.8291 83.4296C44.8412 87.3194 52.816 80.252 44.3434 75.1876Z" fill="black"/>
<path d="M44.3434 118.954C39.3751 121.924 37.6616 124.301 36.5 126.141C35.3368 124.301 33.6249 121.924 28.6566 118.954C20.184 113.889 28.1588 106.822 35.1709 110.712C34.7141 108.298 33.155 106.538 31.5712 105.779V105H41.4288V105.779C39.845 106.538 38.2859 108.298 37.8291 110.712C44.8412 106.822 52.816 113.889 44.3434 118.954Z" fill="black"/>
<path d="M44.3434 155.954C39.3751 158.924 37.6616 161.301 36.5 163.141C35.3368 161.301 33.6249 158.924 28.6566 155.954C20.184 150.889 28.1588 143.822 35.1709 147.712C34.7141 145.298 33.155 143.538 31.5712 142.779V142H41.4288V142.779C39.845 143.538 38.2859 145.298 37.8291 147.712C44.8412 143.822 52.816 150.889 44.3434 155.954Z" fill="black"/>
<path d="M76.3434 57.1876C71.3751 54.2174 69.6616 51.8405 68.5 50C67.3368 51.8405 65.6249 54.2174 60.6566 57.1876C52.184 62.252 60.1588 69.3194 67.1709 65.4296C66.7141 67.8436 65.155 69.6035 63.5712 70.3619V71.1414H73.4288V70.3619C71.845 69.6035 70.2859 67.8436 69.8291 65.4296C76.8412 69.3194 84.816 62.252 76.3434 57.1876Z" fill="black"/>
<path d="M109.343 37.1876C104.375 34.2174 102.662 31.8405 101.5 30C100.337 31.8405 98.6249 34.2174 93.6566 37.1876C85.184 42.252 93.1588 49.3194 100.171 45.4296C99.7141 47.8436 98.155 49.6035 96.5712 50.3619V51.1414H106.429V50.3619C104.845 49.6035 103.286 47.8436 102.829 45.4296C109.841 49.3194 117.816 42.252 109.343 37.1876Z" fill="black"/>
<path d="M109.343 155.954C104.375 158.924 102.662 161.301 101.5 163.141C100.337 161.301 98.6249 158.924 93.6566 155.954C85.184 150.889 93.1588 143.822 100.171 147.712C99.7141 145.298 98.155 143.538 96.5712 142.779V142H106.429V142.779C104.845 143.538 103.286 145.298 102.829 147.712C109.841 143.822 117.816 150.889 109.343 155.954Z" fill="black"/>
<path d="M109.343 118.954C104.375 121.924 102.662 124.301 101.5 126.141C100.337 124.301 98.6249 121.924 93.6566 118.954C85.184 113.889 93.1588 106.822 100.171 110.712C99.7141 108.298 98.155 106.538 96.5712 105.779V105H106.429V105.779C104.845 106.538 103.286 108.298 102.829 110.712C109.841 106.822 117.816 113.889 109.343 118.954Z" fill="black"/>
<path d="M109.343 74.1876C104.375 71.2174 102.662 68.8405 101.5 67C100.337 68.8405 98.6249 71.2174 93.6566 74.1876C85.184 79.252 93.1588 86.3194 100.171 82.4296C99.7141 84.8436 98.155 86.6035 96.5712 87.3619V88.1414H106.429V87.3619C104.845 86.6035 103.286 84.8436 102.829 82.4296C109.841 86.3194 117.816 79.252 109.343 74.1876Z" fill="black"/>
<path d="M76.3434 135.954C71.3751 138.924 69.6616 141.301 68.5 143.141C67.3368 141.301 65.6249 138.924 60.6566 135.954C52.184 130.889 60.1588 123.822 67.1709 127.712C66.7141 125.298 65.155 123.538 63.5712 122.779V122H73.4288V122.779C71.845 123.538 70.2859 125.298 69.8291 127.712C76.8412 123.822 84.816 130.889 76.3434 135.954Z" fill="black"/>
<path d="M125.722 161.456C122.712 163.256 121.673 164.697 120.969 165.812C120.264 164.697 119.227 163.256 116.216 161.456C111.081 158.387 115.914 154.104 120.164 156.461C119.887 154.999 118.942 153.932 117.982 153.472V153H123.956V153.472C122.996 153.932 122.051 154.999 121.775 156.461C126.024 154.104 130.857 158.387 125.722 161.456Z" fill="black"/>
<path d="M7.89555 23.4907V22.0499H11.3745V11.9821L7.89555 14.5825V12.8254L10.7947 10.6643H12.9559V22.0499H15.8023V23.4907H7.89555ZM22.1208 23.6664C21.336 23.6664 20.6507 23.5141 20.065 23.2096C19.4911 22.8933 19.0459 22.4541 18.7297 21.8918C18.4134 21.3178 18.2553 20.6502 18.2553 19.8888V14.2662C18.2553 13.4931 18.4134 12.8254 18.7297 12.2632C19.0459 11.7009 19.4911 11.2675 20.065 10.963C20.6507 10.6467 21.336 10.4886 22.1208 10.4886C22.9173 10.4886 23.6026 10.6467 24.1765 10.963C24.7505 11.2675 25.1956 11.7009 25.5119 12.2632C25.8282 12.8254 25.9863 13.4931 25.9863 14.2662V19.8888C25.9863 20.6502 25.8282 21.3178 25.5119 21.8918C25.1956 22.4541 24.7446 22.8933 24.159 23.2096C23.585 23.5141 22.9056 23.6664 22.1208 23.6664ZM22.1208 22.3135C22.8236 22.3135 23.3859 22.0909 23.8075 21.6458C24.241 21.189 24.4577 20.6033 24.4577 19.8888V14.2662C24.4577 13.5517 24.241 12.9719 23.8075 12.5267C23.3859 12.0699 22.8236 11.8415 22.1208 11.8415C21.418 11.8415 20.8498 12.0699 20.4164 12.5267C19.9948 12.9719 19.7839 13.5517 19.7839 14.2662V19.8888C19.7839 20.6033 19.9948 21.189 20.4164 21.6458C20.8498 22.0909 21.418 22.3135 22.1208 22.3135ZM22.1208 18.1142C21.8045 18.1142 21.5468 18.0146 21.3477 17.8155C21.1603 17.6163 21.0666 17.3528 21.0666 17.0248C21.0666 16.7085 21.1603 16.4567 21.3477 16.2693C21.5468 16.0701 21.8045 15.9706 22.1208 15.9706C22.437 15.9706 22.6889 16.0701 22.8763 16.2693C23.0754 16.4567 23.175 16.7085 23.175 17.0248C23.175 17.3528 23.0754 17.6163 22.8763 17.8155C22.6889 18.0146 22.437 18.1142 22.1208 18.1142Z" fill="black"/>
<path d="M130.07 169.052V170.493H126.591V180.561L130.07 177.961V179.718L127.171 181.879H125.01V170.493H122.164V169.052H130.07ZM115.845 168.877C116.63 168.877 117.315 169.029 117.901 169.333C118.475 169.65 118.92 170.089 119.236 170.651C119.553 171.225 119.711 171.893 119.711 172.654V178.277C119.711 179.05 119.553 179.718 119.236 180.28C118.92 180.842 118.475 181.276 117.901 181.58C117.315 181.896 116.63 182.055 115.845 182.055C115.049 182.055 114.363 181.896 113.789 181.58C113.215 181.276 112.77 180.842 112.454 180.28C112.138 179.718 111.98 179.05 111.98 178.277V172.654C111.98 171.893 112.138 171.225 112.454 170.651C112.77 170.089 113.221 169.65 113.807 169.333C114.381 169.029 115.06 168.877 115.845 168.877ZM115.845 170.23C115.142 170.23 114.58 170.452 114.158 170.897C113.725 171.354 113.508 171.94 113.508 172.654V178.277C113.508 178.991 113.725 179.571 114.158 180.016C114.58 180.473 115.142 180.702 115.845 180.702C116.548 180.702 117.116 180.473 117.549 180.016C117.971 179.571 118.182 178.991 118.182 178.277V172.654C118.182 171.94 117.971 171.354 117.549 170.897C117.116 170.452 116.548 170.23 115.845 170.23ZM115.845 174.429C116.161 174.429 116.419 174.529 116.618 174.728C116.806 174.927 116.899 175.19 116.899 175.518C116.899 175.835 116.806 176.086 116.618 176.274C116.419 176.473 116.161 176.573 115.845 176.573C115.529 176.573 115.277 176.473 115.09 176.274C114.89 176.086 114.791 175.835 114.791 175.518C114.791 175.19 114.89 174.927 115.09 174.728C115.277 174.529 115.529 174.429 115.845 174.429Z" fill="black"/>
</svg>
