<svg width="138" height="193" viewBox="0 0 138 193" fill="none" xmlns="http://www.w3.org/2000/svg">
<rect width="137.269" height="192.177" rx="5.49077" fill="#EAEAEA"/>
<rect x="5.06824" y="4.48401" width="127.555" height="184.17" rx="5.49077" fill="#EAEAEA"/>
<path d="M12.3234 23.4907V21.8742L16.2416 17.71C16.9093 16.9955 17.3954 16.363 17.7 15.8124C18.0045 15.2502 18.1568 14.7113 18.1568 14.1959C18.1568 13.4814 17.9577 12.9191 17.5594 12.5092C17.1728 12.0992 16.6399 11.8942 15.9605 11.8942C15.2108 11.8942 14.6193 12.105 14.1859 12.5267C13.7642 12.9484 13.5533 13.5283 13.5533 14.2662H11.972C11.9954 13.4931 12.1711 12.8254 12.4991 12.2632C12.8388 11.6892 13.3015 11.25 13.8872 10.9454C14.4846 10.6408 15.1757 10.4886 15.9605 10.4886C16.7336 10.4886 17.4013 10.6408 17.9635 10.9454C18.5375 11.2382 18.9767 11.6599 19.2813 12.2105C19.5859 12.761 19.7381 13.417 19.7381 14.1784C19.7381 14.9046 19.5449 15.625 19.1583 16.3395C18.7718 17.0541 18.1392 17.8682 17.2607 18.7818L14.098 22.0499H19.949V23.4907H12.3234Z" fill="#660000"/>
<path d="M125.368 169.052V170.669L121.45 174.833C120.782 175.547 120.296 176.18 119.992 176.731C119.687 177.293 119.535 177.832 119.535 178.347C119.535 179.062 119.734 179.624 120.132 180.034C120.519 180.444 121.052 180.649 121.731 180.649C122.481 180.649 123.072 180.438 123.506 180.016C123.927 179.595 124.138 179.015 124.138 178.277H125.72C125.696 179.05 125.52 179.718 125.192 180.28C124.853 180.854 124.39 181.293 123.804 181.598C123.207 181.902 122.516 182.054 121.731 182.054C120.958 182.054 120.29 181.902 119.728 181.598C119.154 181.305 118.715 180.883 118.41 180.332C118.106 179.782 117.953 179.126 117.953 178.365C117.953 177.638 118.147 176.918 118.533 176.203C118.92 175.489 119.552 174.675 120.431 173.761L123.594 170.493H117.743V169.052H125.368Z" fill="#660000"/>
<path d="M16.0129 43.2798L9.2695 36.1896L16.0129 29.1467L22.7563 36.1896L16.0129 43.2798Z" fill="#660000"/>
<path d="M121.584 164.992L114.84 157.902L121.584 150.859L128.327 157.902L121.584 164.992Z" fill="#660000"/>
<path d="M68.5885 53.758L55.9067 40.4242L68.5885 27.1793L81.2702 40.4242L68.5885 53.758Z" fill="#660000"/>
<path d="M68.5885 166.594L55.9067 153.26L68.5885 140.015L81.2702 153.26L68.5885 166.594Z" fill="#660000"/>
</svg>
