<svg width="138" height="193" viewBox="0 0 138 193" fill="none" xmlns="http://www.w3.org/2000/svg">
<rect width="137.269" height="192.177" rx="5.49077" fill="#EAEAEA"/>
<rect x="5.0686" y="4.48425" width="127.555" height="184.17" rx="5.49077" fill="#EAEAEA"/>
<path d="M11.6165 24V22.3835L15.5347 18.2193C16.2024 17.5048 16.6885 16.8722 16.9931 16.3217C17.2976 15.7594 17.4499 15.2206 17.4499 14.7052C17.4499 13.9907 17.2508 13.4284 16.8525 13.0184C16.4659 12.6085 15.933 12.4035 15.2536 12.4035C14.5039 12.4035 13.9124 12.6143 13.479 13.036C13.0573 13.4577 12.8464 14.0375 12.8464 14.7755H11.2651C11.2885 14.0024 11.4642 13.3347 11.7922 12.7725C12.1319 12.1985 12.5946 11.7592 13.1803 11.4547C13.7777 11.1501 14.4688 10.9978 15.2536 10.9978C16.0267 10.9978 16.6944 11.1501 17.2566 11.4547C17.8306 11.7475 18.2698 12.1692 18.5744 12.7198C18.879 13.2703 19.0312 13.9263 19.0312 14.6876C19.0312 15.4139 18.838 16.1343 18.4514 16.8488C18.0649 17.5633 17.4323 18.3774 16.5538 19.2911L13.3911 22.5592H19.2421V24H11.6165Z" fill="#660000"/>
<path d="M125.384 169V170.616L121.465 174.781C120.798 175.495 120.312 176.128 120.007 176.678C119.702 177.241 119.55 177.779 119.55 178.295C119.55 179.009 119.749 179.572 120.148 179.982C120.534 180.392 121.067 180.597 121.746 180.597C122.496 180.597 123.088 180.386 123.521 179.964C123.943 179.542 124.154 178.962 124.154 178.225H125.735C125.711 178.998 125.536 179.665 125.208 180.228C124.868 180.802 124.405 181.241 123.82 181.545C123.222 181.85 122.531 182.002 121.746 182.002C120.973 182.002 120.306 181.85 119.743 181.545C119.169 181.252 118.73 180.831 118.426 180.28C118.121 179.73 117.969 179.074 117.969 178.312C117.969 177.586 118.162 176.866 118.549 176.151C118.935 175.437 119.568 174.623 120.446 173.709L123.609 170.441H117.758V169H125.384Z" fill="#660000"/>
<path d="M68.4658 50.1017C68.6218 50.1939 68.8082 50.2434 68.9994 50.2434C69.1905 50.2434 69.3769 50.1939 69.5329 50.1017L69 49.4732L69.5342 50.1017L69.544 50.0955L69.5698 50.0801L69.6683 50.0206C69.7536 49.9692 69.8747 49.8942 70.0314 49.7957C71.8603 48.6438 73.5867 47.3827 75.1969 46.0223C76.6098 44.8228 78.0462 43.4209 79.1342 41.9337C80.2172 40.4548 81 38.828 81 37.1971C81 35.2611 80.28 33.7483 79.0062 32.7213C77.7385 31.7004 76.0277 31.2434 74.2308 31.2434C72.1077 31.2434 70.2332 32.0989 69 33.4176C67.7668 32.0989 65.8911 31.2434 63.7692 31.2434C59.9785 31.2434 57 33.9537 57 37.1971C57 38.828 57.784 40.4538 58.8658 41.9337C59.9538 43.4209 61.3902 44.8228 62.8031 46.0234C64.5198 47.4727 66.3681 48.809 68.3317 50.0206L68.4302 50.0801L68.456 50.0955L68.4658 50.1017Z" fill="#660000"/>
<path d="M68.4658 143.946C68.6218 143.854 68.8082 143.804 68.9994 143.804C69.1905 143.804 69.3769 143.854 69.5329 143.946L69 144.574L69.5342 143.946L69.544 143.952L69.5698 143.967L69.6683 144.027C69.7536 144.078 69.8747 144.153 70.0314 144.252C71.8603 145.404 73.5867 146.665 75.1969 148.025C76.6098 149.225 78.0462 150.627 79.1342 152.114C80.2172 153.593 81 155.22 81 156.851C81 158.786 80.28 160.299 79.0062 161.326C77.7385 162.347 76.0277 162.804 74.2308 162.804C72.1077 162.804 70.2332 161.949 69 160.63C67.7668 161.949 65.8911 162.804 63.7692 162.804C59.9785 162.804 57 160.094 57 156.851C57 155.22 57.784 153.594 58.8658 152.114C59.9538 150.627 61.3902 149.225 62.8031 148.024C64.5198 146.575 66.3681 145.239 68.3317 144.027L68.4302 143.967L68.456 143.952L68.4658 143.946Z" fill="#660000"/>
<path d="M15.6884 41.918C15.7794 41.9713 15.8881 42 15.9996 42C16.1111 42 16.2199 41.9713 16.3109 41.918L16 41.5541L16.3116 41.918L16.3173 41.9144L16.3324 41.9055L16.3898 41.871C16.4396 41.8413 16.5102 41.7979 16.6016 41.7408C17.6685 41.0739 18.6756 40.3438 19.6149 39.5562C20.4391 38.8617 21.2769 38.0501 21.9116 37.1891C22.5434 36.3329 23 35.3911 23 34.4469C23 33.3261 22.58 32.4502 21.8369 31.8556C21.0974 31.2646 20.0995 31 19.0513 31C17.8128 31 16.7194 31.4953 16 32.2588C15.2806 31.4953 14.1865 31 12.9487 31C10.7374 31 9 32.5691 9 34.4469C9 35.3911 9.45733 36.3323 10.0884 37.1891C10.7231 38.0501 11.5609 38.8617 12.3851 39.5568C13.3865 40.3959 14.4647 41.1696 15.6102 41.871L15.6676 41.9055L15.6827 41.9144L15.6884 41.918Z" fill="#660000"/>
<path d="M121.688 153.082C121.779 153.029 121.888 153 122 153C122.111 153 122.22 153.029 122.311 153.082L122 153.446L122.312 153.082L122.317 153.086L122.332 153.095L122.39 153.129C122.44 153.159 122.51 153.202 122.602 153.259C123.669 153.926 124.676 154.656 125.615 155.444C126.439 156.138 127.277 156.95 127.912 157.811C128.543 158.667 129 159.609 129 160.553C129 161.674 128.58 162.55 127.837 163.144C127.097 163.735 126.099 164 125.051 164C123.813 164 122.719 163.505 122 162.741C121.281 163.505 120.186 164 118.949 164C116.737 164 115 162.431 115 160.553C115 159.609 115.457 158.668 116.088 157.811C116.723 156.95 117.561 156.138 118.385 155.443C119.387 154.604 120.465 153.83 121.61 153.129L121.668 153.095L121.683 153.086L121.688 153.082Z" fill="#660000"/>
</svg>
