<svg width="138" height="193" viewBox="0 0 138 193" fill="none" xmlns="http://www.w3.org/2000/svg">
<rect width="137.269" height="192.177" rx="5.49077" fill="#EAEAEA"/>
<rect x="5.06824" y="4.48413" width="127.555" height="184.17" rx="5.49077" fill="#EAEAEA"/>
<path d="M21.7224 32.3558C18.7115 30.5558 17.6731 29.1154 16.9692 28C16.2642 29.1154 15.2268 30.5558 12.216 32.3558C7.08141 35.4249 11.9143 39.7078 16.1637 37.3506C15.8869 38.8135 14.942 39.88 13.9822 40.3396V40.812H19.9561V40.3396C18.9963 39.88 18.0514 38.8135 17.7746 37.3506C22.0241 39.7078 26.8569 35.4249 21.7224 32.3558Z" fill="black"/>
<path d="M76.3434 38.1876C71.3751 35.2174 69.6616 32.8405 68.5 31C67.3368 32.8405 65.6249 35.2174 60.6566 38.1876C52.184 43.252 60.1588 50.3194 67.1709 46.4296C66.7141 48.8436 65.155 50.6035 63.5712 51.3619V52.1414H73.4288V51.3619C71.845 50.6035 70.2859 48.8436 69.8291 46.4296C76.8412 50.3194 84.816 43.252 76.3434 38.1876Z" fill="black"/>
<path d="M76.3434 155.954C71.3751 158.924 69.6616 161.301 68.5 163.141C67.3368 161.301 65.6249 158.924 60.6566 155.954C52.184 150.889 60.1588 143.822 67.1709 147.712C66.7141 145.298 65.155 143.538 63.5712 142.779V142H73.4288V142.779C71.845 143.538 70.2859 145.298 69.8291 147.712C76.8412 143.822 84.816 150.889 76.3434 155.954Z" fill="black"/>
<path d="M125.722 161.456C122.712 163.256 121.673 164.697 120.969 165.812C120.264 164.697 119.227 163.256 116.216 161.456C111.081 158.387 115.914 154.104 120.164 156.461C119.887 154.999 118.942 153.932 117.982 153.472V153H123.956V153.472C122.996 153.932 122.051 154.999 121.775 156.461C126.024 154.104 130.857 158.387 125.722 161.456Z" fill="black"/>
<path d="M12.6165 23V21.3835L16.5347 17.2193C17.2024 16.5048 17.6885 15.8722 17.9931 15.3217C18.2976 14.7594 18.4499 14.2206 18.4499 13.7052C18.4499 12.9907 18.2508 12.4284 17.8525 12.0184C17.4659 11.6085 16.933 11.4035 16.2536 11.4035C15.5039 11.4035 14.9124 11.6143 14.479 12.036C14.0573 12.4577 13.8464 13.0375 13.8464 13.7755H12.2651C12.2885 13.0024 12.4642 12.3347 12.7922 11.7725C13.1319 11.1985 13.5946 10.7592 14.1803 10.4547C14.7777 10.1501 15.4688 9.99784 16.2536 9.99784C17.0267 9.99784 17.6944 10.1501 18.2566 10.4547C18.8306 10.7475 19.2698 11.1692 19.5744 11.7198C19.879 12.2703 20.0312 12.9263 20.0312 13.6876C20.0312 14.4139 19.838 15.1343 19.4514 15.8488C19.0649 16.5633 18.4323 17.3774 17.5538 18.2911L14.3911 21.5592H20.2421V23H12.6165Z" fill="black"/>
<path d="M124.384 169V170.616L120.465 174.781C119.798 175.495 119.312 176.128 119.007 176.678C118.702 177.241 118.55 177.779 118.55 178.295C118.55 179.009 118.749 179.572 119.148 179.982C119.534 180.392 120.067 180.597 120.746 180.597C121.496 180.597 122.088 180.386 122.521 179.964C122.943 179.542 123.154 178.962 123.154 178.225H124.735C124.711 178.998 124.536 179.665 124.208 180.228C123.868 180.802 123.405 181.241 122.82 181.545C122.222 181.85 121.531 182.002 120.746 182.002C119.973 182.002 119.306 181.85 118.743 181.545C118.169 181.252 117.73 180.831 117.426 180.28C117.121 179.73 116.969 179.074 116.969 178.312C116.969 177.586 117.162 176.866 117.549 176.151C117.935 175.437 118.568 174.623 119.446 173.709L122.609 170.441H116.758V169H124.384Z" fill="black"/>
</svg>
