<svg width="138" height="193" viewBox="0 0 138 193" fill="none" xmlns="http://www.w3.org/2000/svg">
<rect width="137.269" height="192.177" rx="5.49077" fill="#EAEAEA"/>
<rect x="5.06824" y="4.48401" width="127.555" height="184.17" rx="5.49077" fill="#EAEAEA"/>
<path d="M15.7849 23.6664C15.0118 23.6664 14.3324 23.5141 13.7467 23.2096C13.1728 22.8933 12.7276 22.4599 12.4114 21.9094C12.0951 21.3588 11.937 20.7146 11.937 19.9766H13.5183C13.5183 20.6912 13.7174 21.2534 14.1157 21.6634C14.5257 22.0617 15.0879 22.2608 15.8025 22.2608C16.5287 22.2608 17.091 22.0499 17.4892 21.6283C17.8875 21.2066 18.0866 20.656 18.0866 19.9766V19.063C18.0866 18.3367 17.8875 17.7745 17.4892 17.3762C17.091 16.9779 16.5287 16.7788 15.8025 16.7788H14.4847V15.1975L17.6649 12.1051H12.4641V10.6643H19.2639V12.2456L15.8376 15.5664V15.3732C17.009 15.3732 17.9402 15.707 18.6313 16.3747C19.3224 17.0424 19.668 17.9385 19.668 19.063V19.9766C19.668 20.7146 19.504 21.3588 19.176 21.9094C18.8597 22.4599 18.4088 22.8933 17.8231 23.2096C17.2374 23.5141 16.558 23.6664 15.7849 23.6664Z" fill="#660000"/>
<path d="M121.907 168.877C122.68 168.877 123.359 169.029 123.945 169.333C124.519 169.65 124.964 170.083 125.28 170.634C125.597 171.184 125.755 171.828 125.755 172.566H124.173C124.173 171.852 123.974 171.29 123.576 170.88C123.166 170.481 122.604 170.282 121.889 170.282C121.163 170.282 120.601 170.493 120.202 170.915C119.804 171.336 119.605 171.887 119.605 172.566V173.48C119.605 174.206 119.804 174.769 120.202 175.167C120.601 175.565 121.163 175.764 121.889 175.764H123.207V177.346L120.027 180.438H125.228V181.879H118.428V180.297L121.854 176.977V177.17C120.683 177.17 119.751 176.836 119.06 176.168C118.369 175.501 118.024 174.605 118.024 173.48V172.566C118.024 171.828 118.188 171.184 118.516 170.634C118.832 170.083 119.283 169.65 119.869 169.333C120.454 169.029 121.134 168.877 121.907 168.877Z" fill="#660000"/>
<path d="M16.0129 43.2798L9.2695 36.1896L16.0129 29.1467L22.7563 36.1896L16.0129 43.2798Z" fill="#660000"/>
<path d="M121.584 164.992L114.84 157.902L121.584 150.859L128.327 157.902L121.584 164.992Z" fill="#660000"/>
<path d="M68.5886 53.758L55.9069 40.4242L68.5886 27.1793L81.2704 40.4242L68.5886 53.758Z" fill="#660000"/>
<path d="M68.5886 109.378L55.9069 96.044L68.5886 82.7991L81.2704 96.0441L68.5886 109.378Z" fill="#660000"/>
<path d="M68.5886 166.594L55.9069 153.26L68.5886 140.015L81.2704 153.26L68.5886 166.594Z" fill="#660000"/>
</svg>
