<svg width="138" height="193" viewBox="0 0 138 193" fill="none" xmlns="http://www.w3.org/2000/svg">
<rect width="137.269" height="192.177" rx="5.49077" fill="#EAEAEA"/>
<rect x="5.0686" y="4.48425" width="127.555" height="184.17" rx="5.49077" fill="#EAEAEA"/>
<path d="M15.0779 24.1757C14.3048 24.1757 13.6254 24.0234 13.0397 23.7189C12.4657 23.4026 12.0206 22.9692 11.7043 22.4187C11.3881 21.8681 11.2299 21.2239 11.2299 20.4859H12.8113C12.8113 21.2004 13.0104 21.7627 13.4087 22.1727C13.8187 22.5709 14.3809 22.7701 15.0954 22.7701C15.8217 22.7701 16.3839 22.5592 16.7822 22.1375C17.1805 21.7158 17.3796 21.1653 17.3796 20.4859V19.5722C17.3796 18.846 17.1805 18.2837 16.7822 17.8855C16.3839 17.4872 15.8217 17.2881 15.0954 17.2881H13.7777V15.7067L16.9579 12.6143H11.757V11.1735H18.5568V12.7549L15.1306 16.0757V15.8824C16.3019 15.8824 17.2332 16.2163 17.9243 16.884C18.6154 17.5516 18.9609 18.4477 18.9609 19.5722V20.4859C18.9609 21.2239 18.797 21.8681 18.469 22.4187C18.1527 22.9692 17.7017 23.4026 17.116 23.7189C16.5304 24.0234 15.851 24.1757 15.0779 24.1757Z" fill="#660000"/>
<path d="M121.922 168.824C122.695 168.824 123.375 168.977 123.96 169.281C124.534 169.597 124.979 170.031 125.296 170.581C125.612 171.132 125.77 171.776 125.77 172.514H124.189C124.189 171.8 123.99 171.237 123.591 170.827C123.181 170.429 122.619 170.23 121.905 170.23C121.178 170.23 120.616 170.441 120.218 170.862C119.82 171.284 119.62 171.835 119.62 172.514V173.428C119.62 174.154 119.82 174.716 120.218 175.115C120.616 175.513 121.178 175.712 121.905 175.712H123.222V177.293L120.042 180.386H125.243V181.826H118.443V180.245L121.869 176.924V177.118C120.698 177.118 119.767 176.784 119.076 176.116C118.385 175.448 118.039 174.552 118.039 173.428V172.514C118.039 171.776 118.203 171.132 118.531 170.581C118.847 170.031 119.298 169.597 119.884 169.281C120.47 168.977 121.149 168.824 121.922 168.824Z" fill="#660000"/>
<path d="M68.4658 105.858C68.6218 105.95 68.8082 106 68.9994 106C69.1905 106 69.3769 105.95 69.5329 105.858L69 105.23L69.5342 105.858L69.544 105.852L69.5698 105.837L69.6683 105.777C69.7536 105.726 69.8747 105.651 70.0314 105.552C71.8603 104.4 73.5867 103.139 75.1969 101.779C76.6098 100.579 78.0462 99.1775 79.1342 97.6903C80.2172 96.2114 81 94.5846 81 92.9537C81 91.0177 80.28 89.5049 79.0062 88.4779C77.7385 87.457 76.0277 87 74.2308 87C72.1077 87 70.2332 87.8555 69 89.1742C67.7668 87.8555 65.8911 87 63.7692 87C59.9785 87 57 89.7103 57 92.9537C57 94.5846 57.784 96.2104 58.8658 97.6903C59.9538 99.1775 61.3902 100.579 62.8031 101.78C64.5198 103.229 66.3681 104.566 68.3317 105.777L68.4302 105.837L68.456 105.852L68.4658 105.858Z" fill="#660000"/>
<path d="M68.4658 50.1017C68.6218 50.1939 68.8082 50.2434 68.9994 50.2434C69.1905 50.2434 69.3769 50.1939 69.5329 50.1017L69 49.4732L69.5342 50.1017L69.544 50.0955L69.5698 50.0801L69.6683 50.0206C69.7536 49.9692 69.8747 49.8942 70.0314 49.7957C71.8603 48.6438 73.5867 47.3827 75.1969 46.0223C76.6098 44.8228 78.0462 43.4209 79.1342 41.9337C80.2172 40.4548 81 38.828 81 37.1971C81 35.2611 80.28 33.7483 79.0062 32.7213C77.7385 31.7004 76.0277 31.2434 74.2308 31.2434C72.1077 31.2434 70.2332 32.0989 69 33.4176C67.7668 32.0989 65.8911 31.2434 63.7692 31.2434C59.9785 31.2434 57 33.9537 57 37.1971C57 38.828 57.784 40.4538 58.8658 41.9337C59.9538 43.4209 61.3902 44.8228 62.8031 46.0234C64.5198 47.4727 66.3681 48.809 68.3317 50.0206L68.4302 50.0801L68.456 50.0955L68.4658 50.1017Z" fill="#660000"/>
<path d="M68.4658 143.946C68.6218 143.854 68.8082 143.804 68.9994 143.804C69.1905 143.804 69.3769 143.854 69.5329 143.946L69 144.574L69.5342 143.946L69.544 143.952L69.5698 143.967L69.6683 144.027C69.7536 144.078 69.8747 144.153 70.0314 144.252C71.8603 145.404 73.5867 146.665 75.1969 148.025C76.6098 149.225 78.0462 150.627 79.1342 152.114C80.2172 153.593 81 155.22 81 156.851C81 158.786 80.28 160.299 79.0062 161.326C77.7385 162.347 76.0277 162.804 74.2308 162.804C72.1077 162.804 70.2332 161.949 69 160.63C67.7668 161.949 65.8911 162.804 63.7692 162.804C59.9785 162.804 57 160.094 57 156.851C57 155.22 57.784 153.594 58.8658 152.114C59.9538 150.627 61.3902 149.225 62.8031 148.024C64.5198 146.575 66.3681 145.239 68.3317 144.027L68.4302 143.967L68.456 143.952L68.4658 143.946Z" fill="#660000"/>
<path d="M15.6884 41.918C15.7794 41.9713 15.8881 42 15.9996 42C16.1111 42 16.2199 41.9713 16.3109 41.918L16 41.5541L16.3116 41.918L16.3173 41.9144L16.3324 41.9055L16.3898 41.871C16.4396 41.8413 16.5102 41.7979 16.6016 41.7408C17.6685 41.0739 18.6756 40.3438 19.6149 39.5562C20.4391 38.8617 21.2769 38.0501 21.9116 37.1891C22.5434 36.3329 23 35.3911 23 34.4469C23 33.3261 22.58 32.4502 21.8369 31.8556C21.0974 31.2646 20.0995 31 19.0513 31C17.8128 31 16.7194 31.4953 16 32.2588C15.2806 31.4953 14.1865 31 12.9487 31C10.7374 31 9 32.5691 9 34.4469C9 35.3911 9.45733 36.3323 10.0884 37.1891C10.7231 38.0501 11.5609 38.8617 12.3851 39.5568C13.3865 40.3959 14.4647 41.1696 15.6102 41.871L15.6676 41.9055L15.6827 41.9144L15.6884 41.918Z" fill="#660000"/>
<path d="M121.688 153.082C121.779 153.029 121.888 153 122 153C122.111 153 122.22 153.029 122.311 153.082L122 153.446L122.312 153.082L122.317 153.086L122.332 153.095L122.39 153.129C122.44 153.159 122.51 153.202 122.602 153.259C123.669 153.926 124.676 154.656 125.615 155.444C126.439 156.138 127.277 156.95 127.912 157.811C128.543 158.667 129 159.609 129 160.553C129 161.674 128.58 162.55 127.837 163.144C127.097 163.735 126.099 164 125.051 164C123.813 164 122.719 163.505 122 162.741C121.281 163.505 120.186 164 118.949 164C116.737 164 115 162.431 115 160.553C115 159.609 115.457 158.668 116.088 157.811C116.723 156.95 117.561 156.138 118.385 155.443C119.387 154.604 120.465 153.83 121.61 153.129L121.668 153.095L121.683 153.086L121.688 153.082Z" fill="#660000"/>
</svg>
