<svg width="138" height="193" viewBox="0 0 138 193" fill="none" xmlns="http://www.w3.org/2000/svg">
<rect width="137.269" height="192.177" rx="5.49077" fill="#EAEAEA"/>
<rect x="5.06824" y="4.48413" width="127.555" height="184.17" rx="5.49077" fill="#EAEAEA"/>
<path d="M21.7224 32.3558C18.7115 30.5558 17.6731 29.1154 16.9692 28C16.2642 29.1154 15.2268 30.5558 12.216 32.3558C7.08141 35.4249 11.9143 39.7078 16.1637 37.3506C15.8869 38.8135 14.942 39.88 13.9822 40.3396V40.812H19.9561V40.3396C18.9963 39.88 18.0514 38.8135 17.7746 37.3506C22.0241 39.7078 26.8569 35.4249 21.7224 32.3558Z" fill="black"/>
<path d="M76.3434 38.1876C71.3751 35.2174 69.6616 32.8405 68.5 31C67.3368 32.8405 65.6249 35.2174 60.6566 38.1876C52.184 43.252 60.1588 50.3194 67.1709 46.4296C66.7141 48.8436 65.155 50.6035 63.5712 51.3619V52.1414H73.4288V51.3619C71.845 50.6035 70.2859 48.8436 69.8291 46.4296C76.8412 50.3194 84.816 43.252 76.3434 38.1876Z" fill="black"/>
<path d="M76.3434 93.1876C71.3751 90.2174 69.6616 87.8405 68.5 86C67.3368 87.8405 65.6249 90.2174 60.6566 93.1876C52.184 98.252 60.1588 105.319 67.1709 101.43C66.7141 103.844 65.155 105.603 63.5712 106.362V107.141H73.4288V106.362C71.845 105.603 70.2859 103.844 69.8291 101.43C76.8412 105.319 84.816 98.252 76.3434 93.1876Z" fill="black"/>
<path d="M76.3434 155.954C71.3751 158.924 69.6616 161.301 68.5 163.141C67.3368 161.301 65.6249 158.924 60.6566 155.954C52.184 150.889 60.1588 143.822 67.1709 147.712C66.7141 145.298 65.155 143.538 63.5712 142.779V142H73.4288V142.779C71.845 143.538 70.2859 145.298 69.8291 147.712C76.8412 143.822 84.816 150.889 76.3434 155.954Z" fill="black"/>
<path d="M125.722 161.456C122.712 163.256 121.673 164.697 120.969 165.812C120.264 164.697 119.227 163.256 116.216 161.456C111.081 158.387 115.914 154.104 120.164 156.461C119.887 154.999 118.942 153.932 117.982 153.472V153H123.956V153.472C122.996 153.932 122.051 154.999 121.775 156.461C126.024 154.104 130.857 158.387 125.722 161.456Z" fill="black"/>
<path d="M16.0779 23.1757C15.3048 23.1757 14.6254 23.0234 14.0397 22.7189C13.4657 22.4026 13.0206 21.9692 12.7043 21.4187C12.3881 20.8681 12.2299 20.2239 12.2299 19.4859H13.8113C13.8113 20.2004 14.0104 20.7627 14.4087 21.1727C14.8187 21.5709 15.3809 21.7701 16.0954 21.7701C16.8217 21.7701 17.3839 21.5592 17.7822 21.1375C18.1805 20.7158 18.3796 20.1653 18.3796 19.4859V18.5722C18.3796 17.846 18.1805 17.2837 17.7822 16.8855C17.3839 16.4872 16.8217 16.2881 16.0954 16.2881H14.7777V14.7067L17.9579 11.6143H12.757V10.1735H19.5568V11.7549L16.1306 15.0757V14.8824C17.3019 14.8824 18.2332 15.2163 18.9243 15.884C19.6154 16.5516 19.9609 17.4477 19.9609 18.5722V19.4859C19.9609 20.2239 19.797 20.8681 19.469 21.4187C19.1527 21.9692 18.7017 22.4026 18.116 22.7189C17.5304 23.0234 16.851 23.1757 16.0779 23.1757Z" fill="black"/>
<path d="M120.922 168.824C121.695 168.824 122.375 168.977 122.96 169.281C123.534 169.597 123.979 170.031 124.296 170.581C124.612 171.132 124.77 171.776 124.77 172.514H123.189C123.189 171.8 122.99 171.237 122.591 170.827C122.181 170.429 121.619 170.23 120.905 170.23C120.178 170.23 119.616 170.441 119.218 170.862C118.82 171.284 118.62 171.835 118.62 172.514V173.428C118.62 174.154 118.82 174.716 119.218 175.115C119.616 175.513 120.178 175.712 120.905 175.712H122.222V177.293L119.042 180.386H124.243V181.826H117.443V180.245L120.869 176.924V177.118C119.698 177.118 118.767 176.784 118.076 176.116C117.385 175.448 117.039 174.552 117.039 173.428V172.514C117.039 171.776 117.203 171.132 117.531 170.581C117.847 170.031 118.298 169.597 118.884 169.281C119.47 168.977 120.149 168.824 120.922 168.824Z" fill="black"/>
</svg>
