<svg width="138" height="193" viewBox="0 0 138 193" fill="none" xmlns="http://www.w3.org/2000/svg">
<rect width="137.269" height="192.177" rx="5.49077" fill="#EAEAEA"/>
<rect x="5.06836" y="4.48401" width="127.555" height="184.17" rx="5.49077" fill="#EAEAEA"/>
<path d="M17.9109 23.4907V20.6794H12.1127V18.202L17.1905 10.6643H18.9124L13.694 18.5358V19.2387H17.9109V16.1111H19.4923V23.4907H17.9109Z" fill="#660000"/>
<path d="M119.781 169.052V171.864H125.579V174.341L120.501 181.879H118.779L123.998 174.007V173.304H119.781V176.432H118.2V169.052H119.781Z" fill="#660000"/>
<path d="M16.0129 43.2798L9.2695 36.1896L16.0129 29.1467L22.7563 36.1896L16.0129 43.2798Z" fill="#660000"/>
<path d="M121.584 164.992L114.84 157.902L121.584 150.859L128.327 157.902L121.584 164.992Z" fill="#660000"/>
<path d="M35.9185 53.758L23.2367 40.4242L35.9185 27.1793L48.6002 40.4242L35.9185 53.758Z" fill="#660000"/>
<path d="M102.357 166.594L89.675 153.26L102.357 140.015L115.039 153.26L102.357 166.594Z" fill="#660000"/>
<path d="M102.357 54.0325L89.675 40.6987L102.357 27.4538L115.039 40.6987L102.357 54.0325Z" fill="#660000"/>
<path d="M35.9185 166.594L23.2367 153.26L35.9185 140.015L48.6002 153.26L35.9185 166.594Z" fill="#660000"/>
</svg>
