<svg width="138" height="193" viewBox="0 0 138 193" fill="none" xmlns="http://www.w3.org/2000/svg">
<rect width="137.269" height="192.177" rx="5.49077" fill="#EAEAEA"/>
<rect x="5.06848" y="4.48401" width="127.555" height="184.17" rx="5.49077" fill="#EAEAEA"/>
<path d="M15.9432 23.6664C14.9006 23.6664 14.0455 23.397 13.3779 22.8582C12.7102 22.3194 12.3178 21.5931 12.2006 20.6794H13.782C13.8406 21.1831 14.0573 21.5755 14.4321 21.8567C14.8069 22.1261 15.3165 22.2608 15.9607 22.2608C16.6987 22.2608 17.2492 22.0617 17.6124 21.6634C17.9872 21.2651 18.1746 20.7029 18.1746 19.9766V18.7291C18.1746 18.0029 17.9872 17.4406 17.6124 17.0424C17.2492 16.6441 16.7045 16.445 15.9783 16.445C15.5215 16.445 15.1232 16.568 14.7835 16.8139C14.4438 17.0482 14.1978 17.3645 14.0455 17.7627H12.4642L12.5521 10.6643H19.2991V12.1051H14.0807L14.028 16.3747H14.5199L14.028 16.8315C14.028 16.281 14.2447 15.8476 14.6781 15.5313C15.1232 15.215 15.7147 15.0569 16.4527 15.0569C17.4952 15.0452 18.3035 15.3673 18.8774 16.0233C19.4631 16.6675 19.756 17.5695 19.756 18.7291V19.9766C19.756 21.1129 19.4221 22.0148 18.7544 22.6825C18.0868 23.3384 17.1497 23.6664 15.9432 23.6664Z" fill="#660000"/>
<path d="M121.749 168.877C122.791 168.877 123.646 169.146 124.314 169.685C124.982 170.224 125.374 170.95 125.491 171.864H123.91C123.851 171.36 123.635 170.967 123.26 170.686C122.885 170.417 122.375 170.282 121.731 170.282C120.993 170.282 120.443 170.481 120.08 170.88C119.705 171.278 119.517 171.84 119.517 172.566V173.814C119.517 174.54 119.705 175.102 120.08 175.501C120.443 175.899 120.987 176.098 121.714 176.098C122.17 176.098 122.569 175.975 122.908 175.729C123.248 175.495 123.494 175.178 123.646 174.78H125.228L125.14 181.879H118.393V180.438H123.611L123.664 176.168H123.172L123.664 175.711C123.664 176.262 123.447 176.695 123.014 177.012C122.569 177.328 121.977 177.486 121.239 177.486C120.197 177.498 119.388 177.176 118.814 176.52C118.229 175.875 117.936 174.973 117.936 173.814V172.566C117.936 171.43 118.27 170.528 118.937 169.86C119.605 169.205 120.542 168.877 121.749 168.877Z" fill="#660000"/>
<path d="M16.0131 43.2798L9.26962 36.1896L16.0131 29.1467L22.7565 36.1896L16.0131 43.2798Z" fill="#660000"/>
<path d="M121.584 164.992L114.84 157.902L121.584 150.859L128.327 157.902L121.584 164.992Z" fill="#660000"/>
<path d="M35.9187 53.758L23.2369 40.4242L35.9187 27.1793L48.6004 40.4242L35.9187 53.758Z" fill="#660000"/>
<path d="M68.5888 109.378L55.907 96.044L68.5888 82.7991L81.2705 96.0441L68.5888 109.378Z" fill="#660000"/>
<path d="M102.357 166.594L89.6752 153.26L102.357 140.015L115.039 153.26L102.357 166.594Z" fill="#660000"/>
<path d="M102.357 54.0325L89.6752 40.6987L102.357 27.4538L115.039 40.6987L102.357 54.0325Z" fill="#660000"/>
<path d="M35.9187 166.594L23.2369 153.26L35.9187 140.015L48.6004 153.26L35.9187 166.594Z" fill="#660000"/>
</svg>
