<svg width="138" height="193" viewBox="0 0 138 193" fill="none" xmlns="http://www.w3.org/2000/svg">
<rect width="137.269" height="192.177" rx="5.49077" fill="#EAEAEA"/>
<rect x="5.0686" y="4.48425" width="127.555" height="184.17" rx="5.49077" fill="#EAEAEA"/>
<path d="M15.236 24.1757C14.1935 24.1757 13.3384 23.9063 12.6707 23.3675C12.003 22.8286 11.6106 22.1024 11.4935 21.1887H13.0748C13.1334 21.6924 13.3501 22.0848 13.7249 22.3659C14.0998 22.6354 14.6093 22.7701 15.2536 22.7701C15.9915 22.7701 16.5421 22.5709 16.9052 22.1727C17.28 21.7744 17.4675 21.2121 17.4675 20.4859V19.2384C17.4675 18.5122 17.28 17.9499 16.9052 17.5516C16.5421 17.1534 15.9974 16.9542 15.2711 16.9542C14.8143 16.9542 14.416 17.0772 14.0764 17.3232C13.7367 17.5575 13.4907 17.8738 13.3384 18.272H11.757L11.8449 11.1735H18.592V12.6143H13.3735L13.3208 16.884H13.8128L13.3208 17.3408C13.3208 16.7902 13.5375 16.3568 13.9709 16.0406C14.416 15.7243 15.0076 15.5662 15.7455 15.5662C16.7881 15.5545 17.5963 15.8766 18.1703 16.5325C18.756 17.1768 19.0488 18.0787 19.0488 19.2384V20.4859C19.0488 21.6221 18.715 22.5241 18.0473 23.1918C17.3796 23.8477 16.4425 24.1757 15.236 24.1757Z" fill="#660000"/>
<path d="M121.764 168.824C122.807 168.824 123.662 169.094 124.329 169.633C124.997 170.171 125.389 170.898 125.507 171.811H123.925C123.867 171.308 123.65 170.915 123.275 170.634C122.9 170.365 122.391 170.23 121.746 170.23C121.008 170.23 120.458 170.429 120.095 170.827C119.72 171.226 119.533 171.788 119.533 172.514V173.762C119.533 174.488 119.72 175.05 120.095 175.448C120.458 175.847 121.003 176.046 121.729 176.046C122.186 176.046 122.584 175.923 122.924 175.677C123.263 175.443 123.509 175.126 123.662 174.728H125.243L125.155 181.826H118.408V180.386H123.626L123.679 176.116H123.187L123.679 175.659C123.679 176.21 123.462 176.643 123.029 176.959C122.584 177.276 121.992 177.434 121.254 177.434C120.212 177.446 119.404 177.123 118.83 176.467C118.244 175.823 117.951 174.921 117.951 173.762V172.514C117.951 171.378 118.285 170.476 118.953 169.808C119.62 169.152 120.557 168.824 121.764 168.824Z" fill="#660000"/>
<path d="M68.4658 105.858C68.6218 105.95 68.8082 106 68.9994 106C69.1905 106 69.3769 105.95 69.5329 105.858L69 105.23L69.5342 105.858L69.544 105.852L69.5698 105.837L69.6683 105.777C69.7536 105.726 69.8747 105.651 70.0314 105.552C71.8603 104.4 73.5867 103.139 75.1969 101.779C76.6098 100.579 78.0462 99.1775 79.1342 97.6903C80.2172 96.2114 81 94.5846 81 92.9537C81 91.0177 80.28 89.5049 79.0062 88.4779C77.7385 87.457 76.0277 87 74.2308 87C72.1077 87 70.2332 87.8555 69 89.1742C67.7668 87.8555 65.8911 87 63.7692 87C59.9785 87 57 89.7103 57 92.9537C57 94.5846 57.784 96.2104 58.8658 97.6903C59.9538 99.1775 61.3902 100.579 62.8031 101.78C64.5198 103.229 66.3681 104.566 68.3317 105.777L68.4302 105.837L68.456 105.852L68.4658 105.858Z" fill="#660000"/>
<path d="M101.823 143.946C101.979 143.854 102.165 143.804 102.357 143.804C102.548 143.804 102.734 143.854 102.89 143.946L102.357 144.574L102.891 143.946L102.901 143.952L102.927 143.967L103.025 144.027C103.111 144.078 103.232 144.153 103.389 144.252C105.217 145.404 106.944 146.665 108.554 148.025C109.967 149.225 111.403 150.627 112.491 152.114C113.574 153.593 114.357 155.22 114.357 156.851C114.357 158.786 113.637 160.299 112.363 161.326C111.096 162.347 109.385 162.804 107.588 162.804C105.465 162.804 103.59 161.949 102.357 160.63C101.124 161.949 99.2483 162.804 97.1264 162.804C93.3356 162.804 90.3572 160.094 90.3572 156.851C90.3572 155.22 91.1412 153.594 92.223 152.114C93.311 150.627 94.7473 149.225 96.1603 148.024C97.8769 146.575 99.7253 145.239 101.689 144.027L101.787 143.967L101.813 143.952L101.823 143.946Z" fill="#660000"/>
<path d="M101.823 50.1017C101.979 50.1939 102.165 50.2434 102.357 50.2434C102.548 50.2434 102.734 50.1939 102.89 50.1017L102.357 49.4732L102.891 50.1017L102.901 50.0955L102.927 50.0801L103.025 50.0206C103.111 49.9692 103.232 49.8942 103.389 49.7957C105.217 48.6438 106.944 47.3827 108.554 46.0223C109.967 44.8228 111.403 43.4209 112.491 41.9337C113.574 40.4548 114.357 38.828 114.357 37.1971C114.357 35.2611 113.637 33.7483 112.363 32.7213C111.096 31.7004 109.385 31.2434 107.588 31.2434C105.465 31.2434 103.59 32.0989 102.357 33.4176C101.124 32.0989 99.2483 31.2434 97.1264 31.2434C93.3356 31.2434 90.3572 33.9537 90.3572 37.1971C90.3572 38.828 91.1412 40.4538 92.223 41.9337C93.311 43.4209 94.7473 44.8228 96.1603 46.0234C97.8769 47.4727 99.7253 48.809 101.689 50.0206L101.787 50.0801L101.813 50.0955L101.823 50.1017Z" fill="#660000"/>
<path d="M35.3845 143.946C35.5405 143.854 35.7269 143.804 35.9181 143.804C36.1092 143.804 36.2956 143.854 36.4516 143.946L35.9187 144.574L36.4529 143.946L36.4627 143.952L36.4885 143.967L36.587 144.027C36.6723 144.078 36.7934 144.153 36.9501 144.252C38.779 145.404 40.5054 146.665 42.1156 148.025C43.5285 149.225 44.9649 150.627 46.0529 152.114C47.1359 153.593 47.9187 155.22 47.9187 156.851C47.9187 158.786 47.1987 160.299 45.9249 161.326C44.6572 162.347 42.9464 162.804 41.1495 162.804C39.0264 162.804 37.1519 161.949 35.9187 160.63C34.6855 161.949 32.8098 162.804 30.6879 162.804C26.8972 162.804 23.9187 160.094 23.9187 156.851C23.9187 155.22 24.7027 153.594 25.7845 152.114C26.8725 150.627 28.3089 149.225 29.7218 148.024C31.4385 146.575 33.2868 145.239 35.2504 144.027L35.3489 143.967L35.3747 143.952L35.3845 143.946Z" fill="#660000"/>
<path d="M15.6884 41.918C15.7794 41.9713 15.8881 42 15.9996 42C16.1111 42 16.2199 41.9713 16.3109 41.918L16 41.5541L16.3116 41.918L16.3173 41.9144L16.3324 41.9055L16.3898 41.871C16.4396 41.8413 16.5102 41.7979 16.6016 41.7408C17.6685 41.0739 18.6756 40.3438 19.6149 39.5562C20.4391 38.8617 21.2769 38.0501 21.9116 37.1891C22.5434 36.3329 23 35.3911 23 34.4469C23 33.3261 22.58 32.4502 21.8369 31.8556C21.0974 31.2646 20.0995 31 19.0513 31C17.8128 31 16.7194 31.4953 16 32.2588C15.2806 31.4953 14.1865 31 12.9487 31C10.7374 31 9 32.5691 9 34.4469C9 35.3911 9.45733 36.3323 10.0884 37.1891C10.7231 38.0501 11.5609 38.8617 12.3851 39.5568C13.3865 40.3959 14.4647 41.1696 15.6102 41.871L15.6676 41.9055L15.6827 41.9144L15.6884 41.918Z" fill="#660000"/>
<path d="M121.688 153.082C121.779 153.029 121.888 153 122 153C122.111 153 122.22 153.029 122.311 153.082L122 153.446L122.312 153.082L122.317 153.086L122.332 153.095L122.39 153.129C122.44 153.159 122.51 153.202 122.602 153.259C123.669 153.926 124.676 154.656 125.615 155.444C126.439 156.138 127.277 156.95 127.912 157.811C128.543 158.667 129 159.609 129 160.553C129 161.674 128.58 162.55 127.837 163.144C127.097 163.735 126.099 164 125.051 164C123.813 164 122.719 163.505 122 162.741C121.281 163.505 120.186 164 118.949 164C116.737 164 115 162.431 115 160.553C115 159.609 115.457 158.668 116.088 157.811C116.723 156.95 117.561 156.138 118.385 155.443C119.387 154.604 120.465 153.83 121.61 153.129L121.668 153.095L121.683 153.086L121.688 153.082Z" fill="#660000"/>
<path d="M35.4658 49.8583C35.6218 49.9505 35.8082 50 35.9994 50C36.1905 50 36.3769 49.9505 36.5329 49.8583L36 49.2298L36.5342 49.8583L36.544 49.8521L36.5698 49.8367L36.6683 49.7772C36.7536 49.7258 36.8747 49.6508 37.0314 49.5522C38.8603 48.4004 40.5867 47.1393 42.1969 45.7789C43.6098 44.5794 45.0462 43.1775 46.1342 41.6903C47.2172 40.2114 48 38.5846 48 36.9537C48 35.0177 47.28 33.5049 46.0062 32.4779C44.7385 31.457 43.0277 31 41.2308 31C39.1077 31 37.2332 31.8555 36 33.1742C34.7668 31.8555 32.8911 31 30.7692 31C26.9785 31 24 33.7103 24 36.9537C24 38.5846 24.784 40.2104 25.8658 41.6903C26.9538 43.1775 28.3902 44.5794 29.8031 45.78C31.5198 47.2293 33.3681 48.5656 35.3317 49.7772L35.4302 49.8367L35.456 49.8521L35.4658 49.8583Z" fill="#660000"/>
</svg>
