<svg width="138" height="193" viewBox="0 0 138 193" fill="none" xmlns="http://www.w3.org/2000/svg">
<rect width="137.269" height="192.177" rx="5.49077" fill="#EAEAEA"/>
<rect x="5.06824" y="4.48413" width="127.555" height="184.17" rx="5.49077" fill="#EAEAEA"/>
<path d="M21.7224 32.3558C18.7115 30.5558 17.6731 29.1154 16.9692 28C16.2642 29.1154 15.2268 30.5558 12.216 32.3558C7.08141 35.4249 11.9143 39.7078 16.1637 37.3506C15.8869 38.8135 14.942 39.88 13.9822 40.3396V40.812H19.9561V40.3396C18.9963 39.88 18.0514 38.8135 17.7746 37.3506C22.0241 39.7078 26.8569 35.4249 21.7224 32.3558Z" fill="black"/>
<path d="M44.3434 38.1876C39.3751 35.2174 37.6616 32.8405 36.5 31C35.3368 32.8405 33.6249 35.2174 28.6566 38.1876C20.184 43.252 28.1588 50.3194 35.1709 46.4296C34.7141 48.8436 33.155 50.6035 31.5712 51.3619V52.1414H41.4288V51.3619C39.845 50.6035 38.2859 48.8436 37.8291 46.4296C44.8412 50.3194 52.816 43.252 44.3434 38.1876Z" fill="black"/>
<path d="M76.3434 93.1876C71.3751 90.2174 69.6616 87.8405 68.5 86C67.3368 87.8405 65.6249 90.2174 60.6566 93.1876C52.184 98.252 60.1588 105.319 67.1709 101.43C66.7141 103.844 65.155 105.603 63.5712 106.362V107.141H73.4288V106.362C71.845 105.603 70.2859 103.844 69.8291 101.43C76.8412 105.319 84.816 98.252 76.3434 93.1876Z" fill="black"/>
<path d="M44.3434 155.954C39.3751 158.924 37.6616 161.301 36.5 163.141C35.3368 161.301 33.6249 158.924 28.6566 155.954C20.184 150.889 28.1588 143.822 35.1709 147.712C34.7141 145.298 33.155 143.538 31.5712 142.779V142H41.4288V142.779C39.845 143.538 38.2859 145.298 37.8291 147.712C44.8412 143.822 52.816 150.889 44.3434 155.954Z" fill="black"/>
<path d="M109.343 37.1876C104.375 34.2174 102.662 31.8405 101.5 30C100.337 31.8405 98.6249 34.2174 93.6566 37.1876C85.184 42.252 93.1588 49.3194 100.171 45.4296C99.7141 47.8436 98.155 49.6035 96.5712 50.3619V51.1414H106.429V50.3619C104.845 49.6035 103.286 47.8436 102.829 45.4296C109.841 49.3194 117.816 42.252 109.343 37.1876Z" fill="black"/>
<path d="M109.343 155.954C104.375 158.924 102.662 161.301 101.5 163.141C100.337 161.301 98.6249 158.924 93.6566 155.954C85.184 150.889 93.1588 143.822 100.171 147.712C99.7141 145.298 98.155 143.538 96.5712 142.779V142H106.429V142.779C104.845 143.538 103.286 145.298 102.829 147.712C109.841 143.822 117.816 150.889 109.343 155.954Z" fill="black"/>
<path d="M125.722 161.456C122.712 163.256 121.673 164.697 120.969 165.812C120.264 164.697 119.227 163.256 116.216 161.456C111.081 158.387 115.914 154.104 120.164 156.461C119.887 154.999 118.942 153.932 117.982 153.472V153H123.956V153.472C122.996 153.932 122.051 154.999 121.775 156.461C126.024 154.104 130.857 158.387 125.722 161.456Z" fill="black"/>
<path d="M16.236 23.1757C15.1935 23.1757 14.3384 22.9063 13.6707 22.3675C13.003 21.8286 12.6106 21.1024 12.4935 20.1887H14.0748C14.1334 20.6924 14.3501 21.0848 14.7249 21.3659C15.0998 21.6354 15.6093 21.7701 16.2536 21.7701C16.9915 21.7701 17.5421 21.5709 17.9052 21.1727C18.28 20.7744 18.4675 20.2121 18.4675 19.4859V18.2384C18.4675 17.5122 18.28 16.9499 17.9052 16.5516C17.5421 16.1534 16.9974 15.9542 16.2711 15.9542C15.8143 15.9542 15.416 16.0772 15.0764 16.3232C14.7367 16.5575 14.4907 16.8738 14.3384 17.272H12.757L12.8449 10.1735H19.592V11.6143H14.3735L14.3208 15.884H14.8128L14.3208 16.3408C14.3208 15.7902 14.5375 15.3568 14.9709 15.0406C15.416 14.7243 16.0076 14.5662 16.7455 14.5662C17.7881 14.5545 18.5963 14.8766 19.1703 15.5325C19.756 16.1768 20.0488 17.0787 20.0488 18.2384V19.4859C20.0488 20.6221 19.715 21.5241 19.0473 22.1918C18.3796 22.8477 17.4425 23.1757 16.236 23.1757Z" fill="black"/>
<path d="M120.764 168.824C121.807 168.824 122.662 169.094 123.329 169.633C123.997 170.171 124.389 170.898 124.507 171.811H122.925C122.867 171.308 122.65 170.915 122.275 170.634C121.9 170.365 121.391 170.23 120.746 170.23C120.008 170.23 119.458 170.429 119.095 170.827C118.72 171.226 118.533 171.788 118.533 172.514V173.762C118.533 174.488 118.72 175.05 119.095 175.448C119.458 175.847 120.003 176.046 120.729 176.046C121.186 176.046 121.584 175.923 121.924 175.677C122.263 175.443 122.509 175.126 122.662 174.728H124.243L124.155 181.826H117.408V180.386H122.626L122.679 176.116H122.187L122.679 175.659C122.679 176.21 122.462 176.643 122.029 176.959C121.584 177.276 120.992 177.434 120.254 177.434C119.212 177.446 118.404 177.123 117.83 176.467C117.244 175.823 116.951 174.921 116.951 173.762V172.514C116.951 171.378 117.285 170.476 117.953 169.808C118.62 169.152 119.557 168.824 120.764 168.824Z" fill="black"/>
</svg>
