<svg width="138" height="193" viewBox="0 0 138 193" fill="none" xmlns="http://www.w3.org/2000/svg">
<rect width="137.269" height="192.177" rx="5.49077" fill="#EAEAEA"/>
<rect x="5.06836" y="4.48401" width="127.555" height="184.17" rx="5.49077" fill="#EAEAEA"/>
<path d="M15.9957 23.6664C15.1758 23.6664 14.4554 23.4966 13.8346 23.1569C13.2255 22.8055 12.7511 22.3194 12.4114 21.6985C12.0717 21.0777 11.9018 20.3573 11.9018 19.5374C11.9018 18.8931 11.9897 18.2606 12.1654 17.6398C12.3528 17.0189 12.6281 16.4215 12.9912 15.8476L16.2066 10.6643H17.9636L14.3266 16.4977L14.3968 16.5504C14.6194 16.2224 14.9239 15.9706 15.3105 15.7949C15.697 15.6191 16.1305 15.5313 16.6107 15.5313C17.3135 15.5313 17.9226 15.6953 18.438 16.0233C18.9534 16.3512 19.3517 16.8139 19.6328 17.4113C19.914 18.0087 20.0545 18.7174 20.0545 19.5374C20.0545 20.3573 19.8847 21.0777 19.545 21.6985C19.2053 22.3194 18.7309 22.8055 18.1218 23.1569C17.5244 23.4966 16.8157 23.6664 15.9957 23.6664ZM15.9782 22.2608C16.7279 22.2608 17.3311 22.0148 17.7879 21.5228C18.2448 21.0191 18.4732 20.3573 18.4732 19.5374C18.4732 18.7174 18.2448 18.0614 17.7879 17.5695C17.3311 17.0658 16.7279 16.8139 15.9782 16.8139C15.2285 16.8139 14.6252 17.0658 14.1684 17.5695C13.7116 18.0614 13.4832 18.7174 13.4832 19.5374C13.4832 20.3573 13.7116 21.0191 14.1684 21.5228C14.6252 22.0148 15.2285 22.2608 15.9782 22.2608Z" fill="#660000"/>
<path d="M121.696 168.877C122.516 168.877 123.236 169.046 123.857 169.386C124.466 169.737 124.941 170.224 125.28 170.844C125.62 171.465 125.79 172.186 125.79 173.006C125.79 173.65 125.702 174.282 125.526 174.903C125.339 175.524 125.064 176.121 124.701 176.695L121.485 181.879H119.728L123.365 176.045L123.295 175.993C123.072 176.321 122.768 176.572 122.381 176.748C121.995 176.924 121.561 177.012 121.081 177.012C120.378 177.012 119.769 176.848 119.254 176.52C118.738 176.192 118.34 175.729 118.059 175.132C117.778 174.534 117.637 173.826 117.637 173.006C117.637 172.186 117.807 171.465 118.147 170.844C118.486 170.224 118.961 169.737 119.57 169.386C120.167 169.046 120.876 168.877 121.696 168.877ZM121.714 170.282C120.964 170.282 120.361 170.528 119.904 171.02C119.447 171.524 119.219 172.186 119.219 173.006C119.219 173.826 119.447 174.482 119.904 174.973C120.361 175.477 120.964 175.729 121.714 175.729C122.463 175.729 123.067 175.477 123.523 174.973C123.98 174.482 124.209 173.826 124.209 173.006C124.209 172.186 123.98 171.524 123.523 171.02C123.067 170.528 122.463 170.282 121.714 170.282Z" fill="#660000"/>
<path d="M16.0131 43.2798L9.26962 36.1896L16.0131 29.1467L22.7565 36.1896L16.0131 43.2798Z" fill="#660000"/>
<path d="M121.584 164.992L114.84 157.902L121.584 150.859L128.327 157.902L121.584 164.992Z" fill="#660000"/>
<path d="M35.9185 53.758L23.2367 40.4242L35.9185 27.1793L48.6002 40.4242L35.9185 53.758Z" fill="#660000"/>
<path d="M35.9185 109.378L23.2367 96.044L35.9185 82.7991L48.6002 96.0441L35.9185 109.378Z" fill="#660000"/>
<path d="M102.357 166.594L89.6752 153.26L102.357 140.015L115.039 153.26L102.357 166.594Z" fill="#660000"/>
<path d="M102.357 109.378L89.6752 96.044L102.357 82.7991L115.039 96.0441L102.357 109.378Z" fill="#660000"/>
<path d="M102.357 54.0325L89.6752 40.6987L102.357 27.4538L115.039 40.6987L102.357 54.0325Z" fill="#660000"/>
<path d="M35.9185 166.594L23.2367 153.26L35.9185 140.015L48.6002 153.26L35.9185 166.594Z" fill="#660000"/>
</svg>
