<svg width="138" height="193" viewBox="0 0 138 193" fill="none" xmlns="http://www.w3.org/2000/svg">
<rect width="137.269" height="192.177" rx="5.49077" fill="#EAEAEA"/>
<rect x="5.0686" y="4.48425" width="127.555" height="184.17" rx="5.49077" fill="#EAEAEA"/>
<path d="M15.2887 24.1757C14.4688 24.1757 13.7484 24.0059 13.1275 23.6662C12.5184 23.3148 12.044 22.8286 11.7043 22.2078C11.3646 21.587 11.1948 20.8666 11.1948 20.0466C11.1948 19.4024 11.2826 18.7699 11.4584 18.149C11.6458 17.5282 11.921 16.9308 12.2842 16.3568L15.4996 11.1735H17.2566L13.6195 17.0069L13.6898 17.0597C13.9124 16.7317 14.2169 16.4798 14.6035 16.3041C14.99 16.1284 15.4234 16.0406 15.9037 16.0406C16.6065 16.0406 17.2156 16.2046 17.731 16.5325C18.2464 16.8605 18.6447 17.3232 18.9258 17.9206C19.2069 18.518 19.3475 19.2267 19.3475 20.0466C19.3475 20.8666 19.1776 21.587 18.838 22.2078C18.4983 22.8286 18.0239 23.3148 17.4147 23.6662C16.8173 24.0059 16.1087 24.1757 15.2887 24.1757ZM15.2711 22.7701C16.0208 22.7701 16.6241 22.5241 17.0809 22.0321C17.5377 21.5284 17.7662 20.8666 17.7662 20.0466C17.7662 19.2267 17.5377 18.5707 17.0809 18.0787C16.6241 17.5751 16.0208 17.3232 15.2711 17.3232C14.5215 17.3232 13.9182 17.5751 13.4614 18.0787C13.0046 18.5707 12.7761 19.2267 12.7761 20.0466C12.7761 20.8666 13.0046 21.5284 13.4614 22.0321C13.9182 22.5241 14.5215 22.7701 15.2711 22.7701Z" fill="#660000"/>
<path d="M121.711 168.824C122.531 168.824 123.252 168.994 123.872 169.334C124.482 169.685 124.956 170.171 125.296 170.792C125.635 171.413 125.805 172.133 125.805 172.953C125.805 173.598 125.717 174.23 125.542 174.851C125.354 175.472 125.079 176.069 124.716 176.643L121.5 181.826H119.743L123.38 175.993L123.31 175.94C123.088 176.268 122.783 176.52 122.397 176.696C122.01 176.872 121.577 176.959 121.096 176.959C120.393 176.959 119.784 176.795 119.269 176.467C118.754 176.139 118.355 175.677 118.074 175.079C117.793 174.482 117.653 173.773 117.653 172.953C117.653 172.133 117.822 171.413 118.162 170.792C118.502 170.171 118.976 169.685 119.585 169.334C120.183 168.994 120.891 168.824 121.711 168.824ZM121.729 170.23C120.979 170.23 120.376 170.476 119.919 170.968C119.462 171.472 119.234 172.133 119.234 172.953C119.234 173.773 119.462 174.429 119.919 174.921C120.376 175.425 120.979 175.677 121.729 175.677C122.479 175.677 123.082 175.425 123.539 174.921C123.995 174.429 124.224 173.773 124.224 172.953C124.224 172.133 123.995 171.472 123.539 170.968C123.082 170.476 122.479 170.23 121.729 170.23Z" fill="#660000"/>
<path d="M35.3845 105.858C35.5405 105.95 35.7269 106 35.9181 106C36.1092 106 36.2956 105.95 36.4516 105.858L35.9187 105.23L36.4529 105.858L36.4627 105.852L36.4885 105.837L36.587 105.777C36.6723 105.726 36.7934 105.651 36.9501 105.552C38.779 104.4 40.5054 103.139 42.1156 101.779C43.5285 100.579 44.9649 99.1775 46.0529 97.6903C47.1359 96.2114 47.9187 94.5846 47.9187 92.9537C47.9187 91.0177 47.1987 89.5049 45.9249 88.4779C44.6572 87.457 42.9464 87 41.1495 87C39.0264 87 37.1519 87.8555 35.9187 89.1742C34.6855 87.8555 32.8098 87 30.6879 87C26.8972 87 23.9187 89.7103 23.9187 92.9537C23.9187 94.5846 24.7027 96.2104 25.7845 97.6903C26.8725 99.1775 28.3089 100.579 29.7218 101.78C31.4385 103.229 33.2868 104.566 35.2504 105.777L35.3489 105.837L35.3747 105.852L35.3845 105.858Z" fill="#660000"/>
<path d="M101.823 143.946C101.979 143.854 102.165 143.804 102.357 143.804C102.548 143.804 102.734 143.854 102.89 143.946L102.357 144.574L102.891 143.946L102.901 143.952L102.927 143.967L103.025 144.027C103.111 144.078 103.232 144.153 103.389 144.252C105.217 145.404 106.944 146.665 108.554 148.025C109.967 149.225 111.403 150.627 112.491 152.114C113.574 153.593 114.357 155.22 114.357 156.851C114.357 158.786 113.637 160.299 112.363 161.326C111.096 162.347 109.385 162.804 107.588 162.804C105.465 162.804 103.59 161.949 102.357 160.63C101.124 161.949 99.2483 162.804 97.1264 162.804C93.3356 162.804 90.3572 160.094 90.3572 156.851C90.3572 155.22 91.1412 153.594 92.223 152.114C93.311 150.627 94.7473 149.225 96.1603 148.024C97.8769 146.575 99.7253 145.239 101.689 144.027L101.787 143.967L101.813 143.952L101.823 143.946Z" fill="#660000"/>
<path d="M101.823 105.858C101.979 105.95 102.165 106 102.357 106C102.548 106 102.734 105.95 102.89 105.858L102.357 105.23L102.891 105.858L102.901 105.852L102.927 105.837L103.025 105.777C103.111 105.726 103.232 105.651 103.389 105.552C105.217 104.4 106.944 103.139 108.554 101.779C109.967 100.579 111.403 99.1775 112.491 97.6903C113.574 96.2114 114.357 94.5846 114.357 92.9537C114.357 91.0177 113.637 89.5049 112.363 88.4779C111.096 87.457 109.385 87 107.588 87C105.465 87 103.59 87.8555 102.357 89.1742C101.124 87.8555 99.2483 87 97.1264 87C93.3356 87 90.3572 89.7103 90.3572 92.9537C90.3572 94.5846 91.1412 96.2104 92.223 97.6903C93.311 99.1775 94.7473 100.579 96.1603 101.78C97.8769 103.229 99.7253 104.566 101.689 105.777L101.787 105.837L101.813 105.852L101.823 105.858Z" fill="#660000"/>
<path d="M101.823 50.1017C101.979 50.1939 102.165 50.2434 102.357 50.2434C102.548 50.2434 102.734 50.1939 102.89 50.1017L102.357 49.4732L102.891 50.1017L102.901 50.0955L102.927 50.0801L103.025 50.0206C103.111 49.9692 103.232 49.8942 103.389 49.7957C105.217 48.6438 106.944 47.3827 108.554 46.0223C109.967 44.8228 111.403 43.4209 112.491 41.9337C113.574 40.4548 114.357 38.828 114.357 37.1971C114.357 35.2611 113.637 33.7483 112.363 32.7213C111.096 31.7004 109.385 31.2434 107.588 31.2434C105.465 31.2434 103.59 32.0989 102.357 33.4176C101.124 32.0989 99.2483 31.2434 97.1264 31.2434C93.3356 31.2434 90.3572 33.9537 90.3572 37.1971C90.3572 38.828 91.1412 40.4538 92.223 41.9337C93.311 43.4209 94.7473 44.8228 96.1603 46.0234C97.8769 47.4727 99.7253 48.809 101.689 50.0206L101.787 50.0801L101.813 50.0955L101.823 50.1017Z" fill="#660000"/>
<path d="M35.3845 143.946C35.5405 143.854 35.7269 143.804 35.9181 143.804C36.1092 143.804 36.2956 143.854 36.4516 143.946L35.9187 144.574L36.4529 143.946L36.4627 143.952L36.4885 143.967L36.587 144.027C36.6723 144.078 36.7934 144.153 36.9501 144.252C38.779 145.404 40.5054 146.665 42.1156 148.025C43.5285 149.225 44.9649 150.627 46.0529 152.114C47.1359 153.593 47.9187 155.22 47.9187 156.851C47.9187 158.786 47.1987 160.299 45.9249 161.326C44.6572 162.347 42.9464 162.804 41.1495 162.804C39.0264 162.804 37.1519 161.949 35.9187 160.63C34.6855 161.949 32.8098 162.804 30.6879 162.804C26.8972 162.804 23.9187 160.094 23.9187 156.851C23.9187 155.22 24.7027 153.594 25.7845 152.114C26.8725 150.627 28.3089 149.225 29.7218 148.024C31.4385 146.575 33.2868 145.239 35.2504 144.027L35.3489 143.967L35.3747 143.952L35.3845 143.946Z" fill="#660000"/>
<path d="M15.6884 41.918C15.7794 41.9713 15.8881 42 15.9996 42C16.1111 42 16.2199 41.9713 16.3109 41.918L16 41.5541L16.3116 41.918L16.3173 41.9144L16.3324 41.9055L16.3898 41.871C16.4396 41.8413 16.5102 41.7979 16.6016 41.7408C17.6685 41.0739 18.6756 40.3438 19.6149 39.5562C20.4391 38.8617 21.2769 38.0501 21.9116 37.1891C22.5434 36.3329 23 35.3911 23 34.4469C23 33.3261 22.58 32.4502 21.8369 31.8556C21.0974 31.2646 20.0995 31 19.0513 31C17.8128 31 16.7194 31.4953 16 32.2588C15.2806 31.4953 14.1865 31 12.9487 31C10.7374 31 9 32.5691 9 34.4469C9 35.3911 9.45733 36.3323 10.0884 37.1891C10.7231 38.0501 11.5609 38.8617 12.3851 39.5568C13.3865 40.3959 14.4647 41.1696 15.6102 41.871L15.6676 41.9055L15.6827 41.9144L15.6884 41.918Z" fill="#660000"/>
<path d="M121.688 153.082C121.779 153.029 121.888 153 122 153C122.111 153 122.22 153.029 122.311 153.082L122 153.446L122.312 153.082L122.317 153.086L122.332 153.095L122.39 153.129C122.44 153.159 122.51 153.202 122.602 153.259C123.669 153.926 124.676 154.656 125.615 155.444C126.439 156.138 127.277 156.95 127.912 157.811C128.543 158.667 129 159.609 129 160.553C129 161.674 128.58 162.55 127.837 163.144C127.097 163.735 126.099 164 125.051 164C123.813 164 122.719 163.505 122 162.741C121.281 163.505 120.186 164 118.949 164C116.737 164 115 162.431 115 160.553C115 159.609 115.457 158.668 116.088 157.811C116.723 156.95 117.561 156.138 118.385 155.443C119.387 154.604 120.465 153.83 121.61 153.129L121.668 153.095L121.683 153.086L121.688 153.082Z" fill="#660000"/>
<path d="M35.4658 49.8583C35.6218 49.9505 35.8082 50 35.9994 50C36.1905 50 36.3769 49.9505 36.5329 49.8583L36 49.2298L36.5342 49.8583L36.544 49.8521L36.5698 49.8367L36.6683 49.7772C36.7536 49.7258 36.8747 49.6508 37.0314 49.5522C38.8603 48.4004 40.5867 47.1393 42.1969 45.7789C43.6098 44.5794 45.0462 43.1775 46.1342 41.6903C47.2172 40.2114 48 38.5846 48 36.9537C48 35.0177 47.28 33.5049 46.0062 32.4779C44.7385 31.457 43.0277 31 41.2308 31C39.1077 31 37.2332 31.8555 36 33.1742C34.7668 31.8555 32.8911 31 30.7692 31C26.9785 31 24 33.7103 24 36.9537C24 38.5846 24.784 40.2104 25.8658 41.6903C26.9538 43.1775 28.3902 44.5794 29.8031 45.78C31.5198 47.2293 33.3681 48.5656 35.3317 49.7772L35.4302 49.8367L35.456 49.8521L35.4658 49.8583Z" fill="#660000"/>
</svg>
