<svg width="138" height="193" viewBox="0 0 138 193" fill="none" xmlns="http://www.w3.org/2000/svg">
<rect width="137.269" height="192.177" rx="5.49077" fill="#EAEAEA"/>
<rect x="5.06824" y="4.48413" width="127.555" height="184.17" rx="5.49077" fill="#EAEAEA"/>
<path d="M21.7224 32.3558C18.7115 30.5558 17.6731 29.1154 16.9692 28C16.2642 29.1154 15.2268 30.5558 12.216 32.3558C7.08141 35.4249 11.9143 39.7078 16.1637 37.3506C15.8869 38.8135 14.942 39.88 13.9822 40.3396V40.812H19.9561V40.3396C18.9963 39.88 18.0514 38.8135 17.7746 37.3506C22.0241 39.7078 26.8569 35.4249 21.7224 32.3558Z" fill="black"/>
<path d="M44.3434 38.1876C39.3751 35.2174 37.6616 32.8405 36.5 31C35.3368 32.8405 33.6249 35.2174 28.6566 38.1876C20.184 43.252 28.1588 50.3194 35.1709 46.4296C34.7141 48.8436 33.155 50.6035 31.5712 51.3619V52.1414H41.4288V51.3619C39.845 50.6035 38.2859 48.8436 37.8291 46.4296C44.8412 50.3194 52.816 43.252 44.3434 38.1876Z" fill="black"/>
<path d="M44.3434 93.1876C39.3751 90.2174 37.6616 87.8405 36.5 86C35.3368 87.8405 33.6249 90.2174 28.6566 93.1876C20.184 98.252 28.1588 105.319 35.1709 101.43C34.7141 103.844 33.155 105.603 31.5712 106.362V107.141H41.4288V106.362C39.845 105.603 38.2859 103.844 37.8291 101.43C44.8412 105.319 52.816 98.252 44.3434 93.1876Z" fill="black"/>
<path d="M44.3434 155.954C39.3751 158.924 37.6616 161.301 36.5 163.141C35.3368 161.301 33.6249 158.924 28.6566 155.954C20.184 150.889 28.1588 143.822 35.1709 147.712C34.7141 145.298 33.155 143.538 31.5712 142.779V142H41.4288V142.779C39.845 143.538 38.2859 145.298 37.8291 147.712C44.8412 143.822 52.816 150.889 44.3434 155.954Z" fill="black"/>
<path d="M109.343 37.1876C104.375 34.2174 102.662 31.8405 101.5 30C100.337 31.8405 98.6249 34.2174 93.6566 37.1876C85.184 42.252 93.1588 49.3194 100.171 45.4296C99.7141 47.8436 98.155 49.6035 96.5712 50.3619V51.1414H106.429V50.3619C104.845 49.6035 103.286 47.8436 102.829 45.4296C109.841 49.3194 117.816 42.252 109.343 37.1876Z" fill="black"/>
<path d="M109.343 155.954C104.375 158.924 102.662 161.301 101.5 163.141C100.337 161.301 98.6249 158.924 93.6566 155.954C85.184 150.889 93.1588 143.822 100.171 147.712C99.7141 145.298 98.155 143.538 96.5712 142.779V142H106.429V142.779C104.845 143.538 103.286 145.298 102.829 147.712C109.841 143.822 117.816 150.889 109.343 155.954Z" fill="black"/>
<path d="M109.343 93.1876C104.375 90.2174 102.662 87.8405 101.5 86C100.337 87.8405 98.6249 90.2174 93.6566 93.1876C85.184 98.252 93.1588 105.319 100.171 101.43C99.7141 103.844 98.155 105.603 96.5712 106.362V107.141H106.429V106.362C104.845 105.603 103.286 103.844 102.829 101.43C109.841 105.319 117.816 98.252 109.343 93.1876Z" fill="black"/>
<path d="M125.722 161.456C122.712 163.256 121.673 164.697 120.969 165.812C120.264 164.697 119.227 163.256 116.216 161.456C111.081 158.387 115.914 154.104 120.164 156.461C119.887 154.999 118.942 153.932 117.982 153.472V153H123.956V153.472C122.996 153.932 122.051 154.999 121.775 156.461C126.024 154.104 130.857 158.387 125.722 161.456Z" fill="black"/>
<path d="M16.2887 23.1757C15.4688 23.1757 14.7484 23.0059 14.1275 22.6662C13.5184 22.3148 13.044 21.8286 12.7043 21.2078C12.3646 20.587 12.1948 19.8666 12.1948 19.0466C12.1948 18.4024 12.2826 17.7699 12.4584 17.149C12.6458 16.5282 12.921 15.9308 13.2842 15.3568L16.4996 10.1735H18.2566L14.6195 16.0069L14.6898 16.0597C14.9124 15.7317 15.2169 15.4798 15.6035 15.3041C15.99 15.1284 16.4234 15.0406 16.9037 15.0406C17.6065 15.0406 18.2156 15.2046 18.731 15.5325C19.2464 15.8605 19.6447 16.3232 19.9258 16.9206C20.2069 17.518 20.3475 18.2267 20.3475 19.0466C20.3475 19.8666 20.1776 20.587 19.838 21.2078C19.4983 21.8286 19.0239 22.3148 18.4147 22.6662C17.8173 23.0059 17.1087 23.1757 16.2887 23.1757ZM16.2711 21.7701C17.0208 21.7701 17.6241 21.5241 18.0809 21.0321C18.5377 20.5284 18.7662 19.8666 18.7662 19.0466C18.7662 18.2267 18.5377 17.5707 18.0809 17.0787C17.6241 16.5751 17.0208 16.3232 16.2711 16.3232C15.5215 16.3232 14.9182 16.5751 14.4614 17.0787C14.0046 17.5707 13.7761 18.2267 13.7761 19.0466C13.7761 19.8666 14.0046 20.5284 14.4614 21.0321C14.9182 21.5241 15.5215 21.7701 16.2711 21.7701Z" fill="black"/>
<path d="M120.711 168.824C121.531 168.824 122.252 168.994 122.872 169.334C123.482 169.685 123.956 170.171 124.296 170.792C124.635 171.413 124.805 172.133 124.805 172.953C124.805 173.598 124.717 174.23 124.542 174.851C124.354 175.472 124.079 176.069 123.716 176.643L120.5 181.826H118.743L122.38 175.993L122.31 175.94C122.088 176.268 121.783 176.52 121.397 176.696C121.01 176.872 120.577 176.959 120.096 176.959C119.393 176.959 118.784 176.795 118.269 176.467C117.754 176.139 117.355 175.677 117.074 175.079C116.793 174.482 116.653 173.773 116.653 172.953C116.653 172.133 116.822 171.413 117.162 170.792C117.502 170.171 117.976 169.685 118.585 169.334C119.183 168.994 119.891 168.824 120.711 168.824ZM120.729 170.23C119.979 170.23 119.376 170.476 118.919 170.968C118.462 171.472 118.234 172.133 118.234 172.953C118.234 173.773 118.462 174.429 118.919 174.921C119.376 175.425 119.979 175.677 120.729 175.677C121.479 175.677 122.082 175.425 122.539 174.921C122.995 174.429 123.224 173.773 123.224 172.953C123.224 172.133 122.995 171.472 122.539 170.968C122.082 170.476 121.479 170.23 120.729 170.23Z" fill="black"/>
</svg>
