<svg width="138" height="193" viewBox="0 0 138 193" fill="none" xmlns="http://www.w3.org/2000/svg">
<rect width="137.269" height="192.177" rx="5.49077" fill="#EAEAEA"/>
<rect x="5.06824" y="4.48425" width="127.555" height="184.17" rx="5.49077" fill="#EAEAEA"/>
<path d="M13.9574 23.491L18.5433 12.1053H13.6939V14.0029H12.1125V10.6645H20.1071V12.2107L15.6618 23.491H13.9574Z" fill="#660000"/>
<path d="M123.734 169.052L119.148 180.438H123.998V178.541H125.579V181.879H117.584V180.333L122.03 169.052H123.734Z" fill="#660000"/>
<path d="M16.0129 43.28L9.2695 36.1899L16.0129 29.147L22.7563 36.1899L16.0129 43.28Z" fill="#660000"/>
<path d="M121.584 164.992L114.84 157.902L121.584 150.859L128.327 157.902L121.584 164.992Z" fill="#660000"/>
<path d="M35.9184 53.7582L23.2366 40.4244L35.9184 27.1795L48.6001 40.4244L35.9184 53.7582Z" fill="#660000"/>
<path d="M35.9184 109.378L23.2366 96.0443L35.9184 82.7994L48.6001 96.0443L35.9184 109.378Z" fill="#660000"/>
<path d="M68.5885 109.378L55.9067 96.0443L68.5885 82.7994L81.2702 96.0443L68.5885 109.378Z" fill="#660000"/>
<path d="M102.357 166.594L89.675 153.26L102.357 140.015L115.039 153.26L102.357 166.594Z" fill="#660000"/>
<path d="M102.357 109.378L89.675 96.0443L102.357 82.7994L115.039 96.0443L102.357 109.378Z" fill="#660000"/>
<path d="M102.357 54.0328L89.675 40.699L102.357 27.454L115.039 40.699L102.357 54.0328Z" fill="#660000"/>
<path d="M35.9184 166.594L23.2366 153.26L35.9184 140.015L48.6001 153.26L35.9184 166.594Z" fill="#660000"/>
</svg>
