<svg width="138" height="193" viewBox="0 0 138 193" fill="none" xmlns="http://www.w3.org/2000/svg">
<rect width="137.269" height="192.177" rx="5.49077" fill="#EAEAEA"/>
<rect x="5.06824" y="4.48413" width="127.555" height="184.17" rx="5.49077" fill="#EAEAEA"/>
<path d="M21.7224 32.3558C18.7115 30.5558 17.6731 29.1154 16.9692 28C16.2642 29.1154 15.2268 30.5558 12.216 32.3558C7.08141 35.4249 11.9143 39.7078 16.1637 37.3506C15.8869 38.8135 14.942 39.88 13.9822 40.3396V40.812H19.9561V40.3396C18.9963 39.88 18.0514 38.8135 17.7746 37.3506C22.0241 39.7078 26.8569 35.4249 21.7224 32.3558Z" fill="black"/>
<path d="M44.3434 38.1876C39.3751 35.2174 37.6616 32.8405 36.5 31C35.3368 32.8405 33.6249 35.2174 28.6566 38.1876C20.184 43.252 28.1588 50.3194 35.1709 46.4296C34.7141 48.8436 33.155 50.6035 31.5712 51.3619V52.1414H41.4288V51.3619C39.845 50.6035 38.2859 48.8436 37.8291 46.4296C44.8412 50.3194 52.816 43.252 44.3434 38.1876Z" fill="black"/>
<path d="M44.3434 93.1876C39.3751 90.2174 37.6616 87.8405 36.5 86C35.3368 87.8405 33.6249 90.2174 28.6566 93.1876C20.184 98.252 28.1588 105.319 35.1709 101.43C34.7141 103.844 33.155 105.603 31.5712 106.362V107.141H41.4288V106.362C39.845 105.603 38.2859 103.844 37.8291 101.43C44.8412 105.319 52.816 98.252 44.3434 93.1876Z" fill="black"/>
<path d="M44.3434 155.954C39.3751 158.924 37.6616 161.301 36.5 163.141C35.3368 161.301 33.6249 158.924 28.6566 155.954C20.184 150.889 28.1588 143.822 35.1709 147.712C34.7141 145.298 33.155 143.538 31.5712 142.779V142H41.4288V142.779C39.845 143.538 38.2859 145.298 37.8291 147.712C44.8412 143.822 52.816 150.889 44.3434 155.954Z" fill="black"/>
<path d="M76.3434 93.1876C71.3751 90.2174 69.6616 87.8405 68.5 86C67.3368 87.8405 65.6249 90.2174 60.6566 93.1876C52.184 98.252 60.1588 105.319 67.1709 101.43C66.7141 103.844 65.155 105.603 63.5712 106.362V107.141H73.4288V106.362C71.845 105.603 70.2859 103.844 69.8291 101.43C76.8412 105.319 84.816 98.252 76.3434 93.1876Z" fill="black"/>
<path d="M109.343 37.1876C104.375 34.2174 102.662 31.8405 101.5 30C100.337 31.8405 98.6249 34.2174 93.6566 37.1876C85.184 42.252 93.1588 49.3194 100.171 45.4296C99.7141 47.8436 98.155 49.6035 96.5712 50.3619V51.1414H106.429V50.3619C104.845 49.6035 103.286 47.8436 102.829 45.4296C109.841 49.3194 117.816 42.252 109.343 37.1876Z" fill="black"/>
<path d="M109.343 155.954C104.375 158.924 102.662 161.301 101.5 163.141C100.337 161.301 98.6249 158.924 93.6566 155.954C85.184 150.889 93.1588 143.822 100.171 147.712C99.7141 145.298 98.155 143.538 96.5712 142.779V142H106.429V142.779C104.845 143.538 103.286 145.298 102.829 147.712C109.841 143.822 117.816 150.889 109.343 155.954Z" fill="black"/>
<path d="M109.343 93.1876C104.375 90.2174 102.662 87.8405 101.5 86C100.337 87.8405 98.6249 90.2174 93.6566 93.1876C85.184 98.252 93.1588 105.319 100.171 101.43C99.7141 103.844 98.155 105.603 96.5712 106.362V107.141H106.429V106.362C104.845 105.603 103.286 103.844 102.829 101.43C109.841 105.319 117.816 98.252 109.343 93.1876Z" fill="black"/>
<path d="M125.722 161.456C122.712 163.256 121.673 164.697 120.969 165.812C120.264 164.697 119.227 163.256 116.216 161.456C111.081 158.387 115.914 154.104 120.164 156.461C119.887 154.999 118.942 153.932 117.982 153.472V153H123.956V153.472C122.996 153.932 122.051 154.999 121.775 156.461C126.024 154.104 130.857 158.387 125.722 161.456Z" fill="black"/>
<path d="M14.2505 23L18.8364 11.6143H13.987V13.5119H12.4056V10.1735H20.4002V11.7198L15.9549 23H14.2505Z" fill="black"/>
<path d="M122.749 169L118.164 180.386H123.013V178.488H124.594V181.826H116.6V180.28L121.045 169H122.749Z" fill="black"/>
</svg>
