<svg width="138" height="193" viewBox="0 0 138 193" fill="none" xmlns="http://www.w3.org/2000/svg">
<rect width="137.269" height="192.177" rx="5.49077" fill="#EAEAEA"/>
<rect x="5.06824" y="4.48401" width="127.555" height="184.17" rx="5.49077" fill="#EAEAEA"/>
<path d="M15.9782 23.6663C15.1934 23.6663 14.5081 23.5316 13.9224 23.2622C13.3485 22.9811 12.9033 22.5828 12.5871 22.0674C12.2708 21.552 12.1127 20.9487 12.1127 20.2576C12.1127 19.4962 12.3177 18.8403 12.7276 18.2897C13.1493 17.7392 13.8111 17.2472 14.7131 16.8138L16.4174 15.988C16.9328 15.742 17.3311 15.4199 17.6122 15.0216C17.8934 14.6234 18.0339 14.1841 18.0339 13.7038C18.0339 13.1416 17.8465 12.6965 17.4717 12.3685C17.1085 12.0405 16.6107 11.8765 15.9782 11.8765C15.3456 11.8765 14.842 12.0464 14.4671 12.3861C14.104 12.714 13.9224 13.1592 13.9224 13.7214C13.9224 14.19 14.0571 14.6234 14.3266 15.0216C14.6077 15.4199 14.9884 15.7362 15.4686 15.9704L17.173 16.7787C18.1101 17.2121 18.7895 17.7099 19.2111 18.2722C19.6328 18.8227 19.8437 19.4845 19.8437 20.2576C19.8437 21.3001 19.4923 22.1318 18.7895 22.7526C18.0983 23.3618 17.1613 23.6663 15.9782 23.6663ZM15.9782 22.2607C16.6927 22.2607 17.255 22.0791 17.6649 21.716C18.0866 21.3411 18.2975 20.8433 18.2975 20.2225C18.2975 19.7188 18.1628 19.262 17.8934 18.852C17.6239 18.442 17.2374 18.114 16.7337 17.868L15.0469 17.0422C14.1098 16.5854 13.4305 16.0934 13.0088 15.5663C12.5871 15.0392 12.3762 14.4067 12.3762 13.6687C12.3762 13.0127 12.5226 12.4446 12.8155 11.9644C13.1083 11.4841 13.5242 11.1151 14.063 10.8574C14.6018 10.5997 15.2402 10.4709 15.9782 10.4709C16.7161 10.4709 17.3545 10.5997 17.8934 10.8574C18.4322 11.1151 18.848 11.4841 19.1409 11.9644C19.4337 12.4446 19.5801 13.0127 19.5801 13.6687C19.5801 14.4067 19.3693 15.0392 18.9476 15.5663C18.5259 16.0817 17.8289 16.5795 16.8567 17.0598L15.1699 17.8856C14.6897 18.1199 14.3148 18.442 14.0454 18.852C13.7877 19.2503 13.6589 19.6954 13.6589 20.1873C13.6589 20.8199 13.8639 21.3236 14.2738 21.6984C14.6955 22.0732 15.2636 22.2607 15.9782 22.2607Z" fill="#660000"/>
<path d="M121.713 168.877C122.498 168.877 123.184 169.011 123.769 169.281C124.343 169.562 124.788 169.96 125.105 170.475C125.421 170.991 125.579 171.594 125.579 172.285C125.579 173.047 125.374 173.703 124.964 174.253C124.542 174.804 123.881 175.296 122.979 175.729L121.274 176.555C120.759 176.801 120.361 177.123 120.079 177.521C119.798 177.919 119.658 178.359 119.658 178.839C119.658 179.401 119.845 179.846 120.22 180.174C120.583 180.502 121.081 180.666 121.713 180.666C122.346 180.666 122.85 180.496 123.225 180.157C123.588 179.829 123.769 179.384 123.769 178.821C123.769 178.353 123.635 177.919 123.365 177.521C123.084 177.123 122.703 176.807 122.223 176.572L120.519 175.764C119.582 175.331 118.902 174.833 118.481 174.271C118.059 173.72 117.848 173.058 117.848 172.285C117.848 171.243 118.199 170.411 118.902 169.79C119.593 169.181 120.53 168.877 121.713 168.877ZM121.713 170.282C120.999 170.282 120.437 170.464 120.027 170.827C119.605 171.202 119.394 171.7 119.394 172.32C119.394 172.824 119.529 173.281 119.798 173.691C120.068 174.101 120.454 174.429 120.958 174.675L122.645 175.501C123.582 175.957 124.261 176.449 124.683 176.977C125.105 177.504 125.315 178.136 125.315 178.874C125.315 179.53 125.169 180.098 124.876 180.578C124.583 181.059 124.167 181.428 123.629 181.685C123.09 181.943 122.451 182.072 121.713 182.072C120.976 182.072 120.337 181.943 119.798 181.685C119.259 181.428 118.844 181.059 118.551 180.578C118.258 180.098 118.112 179.53 118.112 178.874C118.112 178.136 118.322 177.504 118.744 176.977C119.166 176.461 119.863 175.963 120.835 175.483L122.522 174.657C123.002 174.423 123.377 174.101 123.646 173.691C123.904 173.293 124.033 172.847 124.033 172.355C124.033 171.723 123.828 171.219 123.418 170.844C122.996 170.47 122.428 170.282 121.713 170.282Z" fill="#660000"/>
<path d="M16.0129 43.2798L9.2695 36.1896L16.0129 29.1467L22.7563 36.1896L16.0129 43.2798Z" fill="#660000"/>
<path d="M121.584 164.992L114.84 157.902L121.584 150.859L128.327 157.902L121.584 164.992Z" fill="#660000"/>
<path d="M35.9185 53.758L23.2367 40.4242L35.9185 27.1793L48.6002 40.4242L35.9185 53.758Z" fill="#660000"/>
<path d="M35.9185 91.6443L23.2367 78.3105L35.9185 65.0656L48.6002 78.3105L35.9185 91.6443Z" fill="#660000"/>
<path d="M102.357 166.593L89.675 153.26L102.357 140.015L115.039 153.26L102.357 166.593Z" fill="#660000"/>
<path d="M102.357 129.256L89.675 115.922L102.357 102.677L115.039 115.922L102.357 129.256Z" fill="#660000"/>
<path d="M102.357 91.6443L89.675 78.3105L102.357 65.0656L115.039 78.3105L102.357 91.6443Z" fill="#660000"/>
<path d="M102.357 54.0325L89.675 40.6987L102.357 27.4538L115.039 40.6987L102.357 54.0325Z" fill="#660000"/>
<path d="M35.9185 166.593L23.2367 153.26L35.9185 140.015L48.6002 153.26L35.9185 166.593Z" fill="#660000"/>
<path d="M35.9185 129.256L23.2367 115.922L35.9185 102.677L48.6002 115.922L35.9185 129.256Z" fill="#660000"/>
</svg>
