<svg width="138" height="193" viewBox="0 0 138 193" fill="none" xmlns="http://www.w3.org/2000/svg">
<rect width="137.269" height="192.177" rx="5.49077" fill="#EAEAEA"/>
<rect x="5.0686" y="4.48425" width="127.555" height="184.17" rx="5.49077" fill="#EAEAEA"/>
<path d="M15.2711 24.1757C14.4863 24.1757 13.8011 24.041 13.2154 23.7716C12.6414 23.4905 12.1963 23.0922 11.88 22.5768C11.5638 22.0614 11.4056 21.4581 11.4056 20.767C11.4056 20.0056 11.6106 19.3497 12.0206 18.7991C12.4423 18.2486 13.1041 17.7566 14.0061 17.3232L15.7104 16.4974C16.2258 16.2514 16.6241 15.9293 16.9052 15.531C17.1863 15.1328 17.3269 14.6935 17.3269 14.2132C17.3269 13.651 17.1395 13.2059 16.7646 12.8779C16.4015 12.5499 15.9037 12.3859 15.2711 12.3859C14.6386 12.3859 14.1349 12.5558 13.7601 12.8955C13.397 13.2234 13.2154 13.6686 13.2154 14.2308C13.2154 14.6994 13.3501 15.1328 13.6195 15.531C13.9006 15.9293 14.2813 16.2456 14.7616 16.4798L16.4659 17.2881C17.403 17.7215 18.0824 18.2193 18.5041 18.7816C18.9258 19.3321 19.1367 19.9939 19.1367 20.767C19.1367 21.8095 18.7852 22.6412 18.0824 23.262C17.3913 23.8711 16.4542 24.1757 15.2711 24.1757ZM15.2711 22.7701C15.9857 22.7701 16.5479 22.5885 16.9579 22.2254C17.3796 21.8505 17.5904 21.3527 17.5904 20.7319C17.5904 20.2282 17.4557 19.7714 17.1863 19.3614C16.9169 18.9514 16.5304 18.6234 16.0267 18.3774L14.3399 17.5516C13.4028 17.0948 12.7234 16.6028 12.3017 16.0757C11.88 15.5486 11.6692 14.9161 11.6692 14.1781C11.6692 13.5221 11.8156 12.954 12.1085 12.4738C12.4013 11.9935 12.8171 11.6245 13.356 11.3668C13.8948 11.1091 14.5332 10.9803 15.2711 10.9803C16.0091 10.9803 16.6475 11.1091 17.1863 11.3668C17.7252 11.6245 18.141 11.9935 18.4338 12.4738C18.7267 12.954 18.8731 13.5221 18.8731 14.1781C18.8731 14.9161 18.6622 15.5486 18.2406 16.0757C17.8189 16.5911 17.1219 17.0889 16.1497 17.5692L14.4629 18.395C13.9826 18.6293 13.6078 18.9514 13.3384 19.3614C13.0807 19.7597 12.9518 20.2048 12.9518 20.6967C12.9518 21.3293 13.1568 21.833 13.5668 22.2078C13.9885 22.5826 14.5566 22.7701 15.2711 22.7701Z" fill="#660000"/>
<path d="M121.729 168.824C122.514 168.824 123.199 168.959 123.785 169.228C124.359 169.51 124.804 169.908 125.12 170.423C125.436 170.939 125.594 171.542 125.594 172.233C125.594 172.994 125.389 173.65 124.979 174.201C124.558 174.751 123.896 175.243 122.994 175.677L121.29 176.503C120.774 176.749 120.376 177.071 120.095 177.469C119.814 177.867 119.673 178.306 119.673 178.787C119.673 179.349 119.861 179.794 120.235 180.122C120.598 180.45 121.096 180.614 121.729 180.614C122.361 180.614 122.865 180.444 123.24 180.105C123.603 179.777 123.785 179.331 123.785 178.769C123.785 178.301 123.65 177.867 123.38 177.469C123.099 177.071 122.719 176.754 122.238 176.52L120.534 175.712C119.597 175.279 118.918 174.781 118.496 174.218C118.074 173.668 117.863 173.006 117.863 172.233C117.863 171.19 118.215 170.359 118.918 169.738C119.609 169.129 120.546 168.824 121.729 168.824ZM121.729 170.23C121.014 170.23 120.452 170.411 120.042 170.775C119.62 171.149 119.41 171.647 119.41 172.268C119.41 172.772 119.544 173.229 119.814 173.639C120.083 174.049 120.47 174.377 120.973 174.623L122.66 175.448C123.597 175.905 124.277 176.397 124.698 176.924C125.12 177.451 125.331 178.084 125.331 178.822C125.331 179.478 125.184 180.046 124.892 180.526C124.599 181.006 124.183 181.375 123.644 181.633C123.105 181.891 122.467 182.02 121.729 182.02C120.991 182.02 120.353 181.891 119.814 181.633C119.275 181.375 118.859 181.006 118.566 180.526C118.273 180.046 118.127 179.478 118.127 178.822C118.127 178.084 118.338 177.451 118.759 176.924C119.181 176.409 119.878 175.911 120.85 175.431L122.537 174.605C123.017 174.371 123.392 174.049 123.662 173.639C123.919 173.24 124.048 172.795 124.048 172.303C124.048 171.671 123.843 171.167 123.433 170.792C123.012 170.417 122.443 170.23 121.729 170.23Z" fill="#660000"/>
<path d="M35.3845 87.7135C35.5405 87.8057 35.7269 87.8552 35.9181 87.8552C36.1092 87.8552 36.2956 87.8057 36.4516 87.7135L35.9187 87.085L36.4529 87.7135L36.4627 87.7074L36.4885 87.692L36.587 87.6324C36.6723 87.581 36.7934 87.5061 36.9501 87.4075C38.779 86.2556 40.5054 84.9945 42.1156 83.6342C43.5285 82.4346 44.9649 81.0327 46.0529 79.5456C47.1359 78.0666 47.9187 76.4398 47.9187 74.8089C47.9187 72.873 47.1987 71.3601 45.9249 70.3331C44.6572 69.3123 42.9464 68.8552 41.1495 68.8552C39.0264 68.8552 37.1519 69.7107 35.9187 71.0294C34.6855 69.7107 32.8098 68.8552 30.6879 68.8552C26.8972 68.8552 23.9187 71.5656 23.9187 74.8089C23.9187 76.4398 24.7027 78.0656 25.7845 79.5456C26.8725 81.0327 28.3089 82.4346 29.7218 83.6352C31.4385 85.0845 33.2868 86.4209 35.2504 87.6324L35.3489 87.692L35.3747 87.7074L35.3845 87.7135Z" fill="#660000"/>
<path d="M101.823 143.946C101.979 143.854 102.165 143.804 102.357 143.804C102.548 143.804 102.734 143.854 102.89 143.946L102.357 144.574L102.891 143.946L102.901 143.952L102.927 143.967L103.025 144.027C103.111 144.078 103.232 144.153 103.389 144.252C105.217 145.404 106.944 146.665 108.554 148.025C109.967 149.225 111.403 150.627 112.491 152.114C113.574 153.593 114.357 155.22 114.357 156.851C114.357 158.786 113.637 160.299 112.363 161.326C111.096 162.347 109.385 162.804 107.588 162.804C105.465 162.804 103.59 161.949 102.357 160.63C101.124 161.949 99.2483 162.804 97.1264 162.804C93.3356 162.804 90.3572 160.094 90.3572 156.851C90.3572 155.22 91.1412 153.594 92.223 152.114C93.311 150.627 94.7473 149.225 96.1603 148.024C97.8769 146.575 99.7253 145.239 101.689 144.027L101.787 143.967L101.813 143.952L101.823 143.946Z" fill="#660000"/>
<path d="M101.823 106.609C101.979 106.517 102.165 106.467 102.357 106.467C102.548 106.467 102.734 106.517 102.89 106.609L102.357 107.237L102.891 106.609L102.901 106.615L102.927 106.63L103.025 106.69C103.111 106.741 103.232 106.816 103.389 106.915C105.217 108.067 106.944 109.328 108.554 110.688C109.967 111.888 111.403 113.29 112.491 114.777C113.574 116.256 114.357 117.882 114.357 119.513C114.357 121.449 113.637 122.962 112.363 123.989C111.096 125.01 109.385 125.467 107.588 125.467C105.465 125.467 103.59 124.612 102.357 123.293C101.124 124.612 99.2483 125.467 97.1264 125.467C93.3356 125.467 90.3572 122.757 90.3572 119.513C90.3572 117.882 91.1412 116.257 92.223 114.777C93.311 113.29 94.7473 111.888 96.1603 110.687C97.8769 109.238 99.7253 107.901 101.689 106.69L101.787 106.63L101.813 106.615L101.823 106.609Z" fill="#660000"/>
<path d="M101.823 87.7135C101.979 87.8057 102.165 87.8552 102.357 87.8552C102.548 87.8552 102.734 87.8057 102.89 87.7135L102.357 87.085L102.891 87.7135L102.901 87.7074L102.927 87.692L103.025 87.6324C103.111 87.581 103.232 87.5061 103.389 87.4075C105.217 86.2556 106.944 84.9945 108.554 83.6342C109.967 82.4346 111.403 81.0327 112.491 79.5456C113.574 78.0666 114.357 76.4398 114.357 74.8089C114.357 72.873 113.637 71.3601 112.363 70.3331C111.096 69.3123 109.385 68.8552 107.588 68.8552C105.465 68.8552 103.59 69.7107 102.357 71.0294C101.124 69.7107 99.2483 68.8552 97.1264 68.8552C93.3356 68.8552 90.3572 71.5656 90.3572 74.8089C90.3572 76.4398 91.1412 78.0656 92.223 79.5456C93.311 81.0327 94.7473 82.4346 96.1603 83.6352C97.8769 85.0845 99.7253 86.4209 101.689 87.6324L101.787 87.692L101.813 87.7074L101.823 87.7135Z" fill="#660000"/>
<path d="M101.823 50.1017C101.979 50.1939 102.165 50.2434 102.357 50.2434C102.548 50.2434 102.734 50.1939 102.89 50.1017L102.357 49.4732L102.891 50.1017L102.901 50.0955L102.927 50.0801L103.025 50.0206C103.111 49.9692 103.232 49.8942 103.389 49.7957C105.217 48.6438 106.944 47.3827 108.554 46.0223C109.967 44.8228 111.403 43.4209 112.491 41.9337C113.574 40.4548 114.357 38.828 114.357 37.1971C114.357 35.2611 113.637 33.7483 112.363 32.7213C111.096 31.7004 109.385 31.2434 107.588 31.2434C105.465 31.2434 103.59 32.0989 102.357 33.4176C101.124 32.0989 99.2483 31.2434 97.1264 31.2434C93.3356 31.2434 90.3572 33.9537 90.3572 37.1971C90.3572 38.828 91.1412 40.4538 92.223 41.9337C93.311 43.4209 94.7473 44.8228 96.1603 46.0234C97.8769 47.4727 99.7253 48.809 101.689 50.0206L101.787 50.0801L101.813 50.0955L101.823 50.1017Z" fill="#660000"/>
<path d="M35.3845 143.946C35.5405 143.854 35.7269 143.804 35.9181 143.804C36.1092 143.804 36.2956 143.854 36.4516 143.946L35.9187 144.574L36.4529 143.946L36.4627 143.952L36.4885 143.967L36.587 144.027C36.6723 144.078 36.7934 144.153 36.9501 144.252C38.779 145.404 40.5054 146.665 42.1156 148.025C43.5285 149.225 44.9649 150.627 46.0529 152.114C47.1359 153.593 47.9187 155.22 47.9187 156.851C47.9187 158.786 47.1987 160.299 45.9249 161.326C44.6572 162.347 42.9464 162.804 41.1495 162.804C39.0264 162.804 37.1519 161.949 35.9187 160.63C34.6855 161.949 32.8098 162.804 30.6879 162.804C26.8972 162.804 23.9187 160.094 23.9187 156.851C23.9187 155.22 24.7027 153.594 25.7845 152.114C26.8725 150.627 28.3089 149.225 29.7218 148.024C31.4385 146.575 33.2868 145.239 35.2504 144.027L35.3489 143.967L35.3747 143.952L35.3845 143.946Z" fill="#660000"/>
<path d="M35.3845 106.609C35.5405 106.517 35.7269 106.467 35.9181 106.467C36.1092 106.467 36.2956 106.517 36.4516 106.609L35.9187 107.237L36.4529 106.609L36.4627 106.615L36.4885 106.63L36.587 106.69C36.6723 106.741 36.7934 106.816 36.9501 106.915C38.779 108.067 40.5054 109.328 42.1156 110.688C43.5285 111.888 44.9649 113.29 46.0529 114.777C47.1359 116.256 47.9187 117.882 47.9187 119.513C47.9187 121.449 47.1987 122.962 45.9249 123.989C44.6572 125.01 42.9464 125.467 41.1495 125.467C39.0264 125.467 37.1519 124.612 35.9187 123.293C34.6855 124.612 32.8098 125.467 30.6879 125.467C26.8972 125.467 23.9187 122.757 23.9187 119.513C23.9187 117.882 24.7027 116.257 25.7845 114.777C26.8725 113.29 28.3089 111.888 29.7218 110.687C31.4385 109.238 33.2868 107.901 35.2504 106.69L35.3489 106.63L35.3747 106.615L35.3845 106.609Z" fill="#660000"/>
<path d="M15.6884 41.918C15.7794 41.9713 15.8881 42 15.9996 42C16.1111 42 16.2199 41.9713 16.3109 41.918L16 41.5541L16.3116 41.918L16.3173 41.9144L16.3324 41.9055L16.3898 41.871C16.4396 41.8413 16.5102 41.7979 16.6016 41.7408C17.6685 41.0739 18.6756 40.3438 19.6149 39.5562C20.4391 38.8617 21.2769 38.0501 21.9116 37.1891C22.5434 36.3329 23 35.3911 23 34.4469C23 33.3261 22.58 32.4502 21.8369 31.8556C21.0974 31.2646 20.0995 31 19.0513 31C17.8128 31 16.7194 31.4953 16 32.2588C15.2806 31.4953 14.1865 31 12.9487 31C10.7374 31 9 32.5691 9 34.4469C9 35.3911 9.45733 36.3323 10.0884 37.1891C10.7231 38.0501 11.5609 38.8617 12.3851 39.5568C13.3865 40.3959 14.4647 41.1696 15.6102 41.871L15.6676 41.9055L15.6827 41.9144L15.6884 41.918Z" fill="#660000"/>
<path d="M121.688 153.082C121.779 153.029 121.888 153 122 153C122.111 153 122.22 153.029 122.311 153.082L122 153.446L122.312 153.082L122.317 153.086L122.332 153.095L122.39 153.129C122.44 153.159 122.51 153.202 122.602 153.259C123.669 153.926 124.676 154.656 125.615 155.444C126.439 156.138 127.277 156.95 127.912 157.811C128.543 158.667 129 159.609 129 160.553C129 161.674 128.58 162.55 127.837 163.144C127.097 163.735 126.099 164 125.051 164C123.813 164 122.719 163.505 122 162.741C121.281 163.505 120.186 164 118.949 164C116.737 164 115 162.431 115 160.553C115 159.609 115.457 158.668 116.088 157.811C116.723 156.95 117.561 156.138 118.385 155.443C119.387 154.604 120.465 153.83 121.61 153.129L121.668 153.095L121.683 153.086L121.688 153.082Z" fill="#660000"/>
<path d="M35.4658 49.8583C35.6218 49.9505 35.8082 50 35.9994 50C36.1905 50 36.3769 49.9505 36.5329 49.8583L36 49.2298L36.5342 49.8583L36.544 49.8521L36.5698 49.8367L36.6683 49.7772C36.7536 49.7258 36.8747 49.6508 37.0314 49.5522C38.8603 48.4004 40.5867 47.1393 42.1969 45.7789C43.6098 44.5794 45.0462 43.1775 46.1342 41.6903C47.2172 40.2114 48 38.5846 48 36.9537C48 35.0177 47.28 33.5049 46.0062 32.4779C44.7385 31.457 43.0277 31 41.2308 31C39.1077 31 37.2332 31.8555 36 33.1742C34.7668 31.8555 32.8911 31 30.7692 31C26.9785 31 24 33.7103 24 36.9537C24 38.5846 24.784 40.2104 25.8658 41.6903C26.9538 43.1775 28.3902 44.5794 29.8031 45.78C31.5198 47.2293 33.3681 48.5656 35.3317 49.7772L35.4302 49.8367L35.456 49.8521L35.4658 49.8583Z" fill="#660000"/>
</svg>
