<svg width="138" height="193" viewBox="0 0 138 193" fill="none" xmlns="http://www.w3.org/2000/svg">
<rect width="137.269" height="192.177" rx="5.49077" fill="#EAEAEA"/>
<rect x="5.06824" y="4.48413" width="127.555" height="184.17" rx="5.49077" fill="#EAEAEA"/>
<path d="M21.7224 32.3558C18.7115 30.5558 17.6731 29.1154 16.9692 28C16.2642 29.1154 15.2268 30.5558 12.216 32.3558C7.08141 35.4249 11.9143 39.7078 16.1637 37.3506C15.8869 38.8135 14.942 39.88 13.9822 40.3396V40.812H19.9561V40.3396C18.9963 39.88 18.0514 38.8135 17.7746 37.3506C22.0241 39.7078 26.8569 35.4249 21.7224 32.3558Z" fill="black"/>
<path d="M44.3434 38.1876C39.3751 35.2174 37.6616 32.8405 36.5 31C35.3368 32.8405 33.6249 35.2174 28.6566 38.1876C20.184 43.252 28.1588 50.3194 35.1709 46.4296C34.7141 48.8436 33.155 50.6035 31.5712 51.3619V52.1414H41.4288V51.3619C39.845 50.6035 38.2859 48.8436 37.8291 46.4296C44.8412 50.3194 52.816 43.252 44.3434 38.1876Z" fill="black"/>
<path d="M44.3434 75.1876C39.3751 72.2174 37.6616 69.8405 36.5 68C35.3368 69.8405 33.6249 72.2174 28.6566 75.1876C20.184 80.252 28.1588 87.3194 35.1709 83.4296C34.7141 85.8436 33.155 87.6035 31.5712 88.3619V89.1414H41.4288V88.3619C39.845 87.6035 38.2859 85.8436 37.8291 83.4296C44.8412 87.3194 52.816 80.252 44.3434 75.1876Z" fill="black"/>
<path d="M44.3434 118.954C39.3751 121.924 37.6616 124.301 36.5 126.141C35.3368 124.301 33.6249 121.924 28.6566 118.954C20.184 113.889 28.1588 106.822 35.1709 110.712C34.7141 108.298 33.155 106.538 31.5712 105.779V105H41.4288V105.779C39.845 106.538 38.2859 108.298 37.8291 110.712C44.8412 106.822 52.816 113.889 44.3434 118.954Z" fill="black"/>
<path d="M44.3434 155.954C39.3751 158.924 37.6616 161.301 36.5 163.141C35.3368 161.301 33.6249 158.924 28.6566 155.954C20.184 150.889 28.1588 143.822 35.1709 147.712C34.7141 145.298 33.155 143.538 31.5712 142.779V142H41.4288V142.779C39.845 143.538 38.2859 145.298 37.8291 147.712C44.8412 143.822 52.816 150.889 44.3434 155.954Z" fill="black"/>
<path d="M109.343 37.1876C104.375 34.2174 102.662 31.8405 101.5 30C100.337 31.8405 98.6249 34.2174 93.6566 37.1876C85.184 42.252 93.1588 49.3194 100.171 45.4296C99.7141 47.8436 98.155 49.6035 96.5712 50.3619V51.1414H106.429V50.3619C104.845 49.6035 103.286 47.8436 102.829 45.4296C109.841 49.3194 117.816 42.252 109.343 37.1876Z" fill="black"/>
<path d="M109.343 155.954C104.375 158.924 102.662 161.301 101.5 163.141C100.337 161.301 98.6249 158.924 93.6566 155.954C85.184 150.889 93.1588 143.822 100.171 147.712C99.7141 145.298 98.155 143.538 96.5712 142.779V142H106.429V142.779C104.845 143.538 103.286 145.298 102.829 147.712C109.841 143.822 117.816 150.889 109.343 155.954Z" fill="black"/>
<path d="M109.343 118.954C104.375 121.924 102.662 124.301 101.5 126.141C100.337 124.301 98.6249 121.924 93.6566 118.954C85.184 113.889 93.1588 106.822 100.171 110.712C99.7141 108.298 98.155 106.538 96.5712 105.779V105H106.429V105.779C104.845 106.538 103.286 108.298 102.829 110.712C109.841 106.822 117.816 113.889 109.343 118.954Z" fill="black"/>
<path d="M109.343 74.1876C104.375 71.2174 102.662 68.8405 101.5 67C100.337 68.8405 98.6249 71.2174 93.6566 74.1876C85.184 79.252 93.1588 86.3194 100.171 82.4296C99.7141 84.8436 98.155 86.6035 96.5712 87.3619V88.1414H106.429V87.3619C104.845 86.6035 103.286 84.8436 102.829 82.4296C109.841 86.3194 117.816 79.252 109.343 74.1876Z" fill="black"/>
<path d="M125.722 161.456C122.712 163.256 121.673 164.697 120.969 165.812C120.264 164.697 119.227 163.256 116.216 161.456C111.081 158.387 115.914 154.104 120.164 156.461C119.887 154.999 118.942 153.932 117.982 153.472V153H123.956V153.472C122.996 153.932 122.051 154.999 121.775 156.461C126.024 154.104 130.857 158.387 125.722 161.456Z" fill="black"/>
<path d="M16.2711 23.1757C15.4863 23.1757 14.8011 23.041 14.2154 22.7716C13.6414 22.4905 13.1963 22.0922 12.88 21.5768C12.5638 21.0614 12.4056 20.4581 12.4056 19.767C12.4056 19.0056 12.6106 18.3497 13.0206 17.7991C13.4423 17.2486 14.1041 16.7566 15.0061 16.3232L16.7104 15.4974C17.2258 15.2514 17.6241 14.9293 17.9052 14.531C18.1863 14.1328 18.3269 13.6935 18.3269 13.2132C18.3269 12.651 18.1395 12.2059 17.7646 11.8779C17.4015 11.5499 16.9037 11.3859 16.2711 11.3859C15.6386 11.3859 15.1349 11.5558 14.7601 11.8955C14.397 12.2234 14.2154 12.6686 14.2154 13.2308C14.2154 13.6994 14.3501 14.1328 14.6195 14.531C14.9006 14.9293 15.2813 15.2456 15.7616 15.4798L17.4659 16.2881C18.403 16.7215 19.0824 17.2193 19.5041 17.7816C19.9258 18.3321 20.1367 18.9939 20.1367 19.767C20.1367 20.8095 19.7852 21.6412 19.0824 22.262C18.3913 22.8711 17.4542 23.1757 16.2711 23.1757ZM16.2711 21.7701C16.9857 21.7701 17.5479 21.5885 17.9579 21.2254C18.3796 20.8505 18.5904 20.3527 18.5904 19.7319C18.5904 19.2282 18.4557 18.7714 18.1863 18.3614C17.9169 17.9514 17.5304 17.6234 17.0267 17.3774L15.3399 16.5516C14.4028 16.0948 13.7234 15.6028 13.3017 15.0757C12.88 14.5486 12.6692 13.9161 12.6692 13.1781C12.6692 12.5221 12.8156 11.954 13.1085 11.4738C13.4013 10.9935 13.8171 10.6245 14.356 10.3668C14.8948 10.1091 15.5332 9.98027 16.2711 9.98027C17.0091 9.98027 17.6475 10.1091 18.1863 10.3668C18.7252 10.6245 19.141 10.9935 19.4338 11.4738C19.7267 11.954 19.8731 12.5221 19.8731 13.1781C19.8731 13.9161 19.6622 14.5486 19.2406 15.0757C18.8189 15.5911 18.1219 16.0889 17.1497 16.5692L15.4629 17.395C14.9826 17.6293 14.6078 17.9514 14.3384 18.3614C14.0807 18.7597 13.9518 19.2048 13.9518 19.6967C13.9518 20.3293 14.1568 20.833 14.5668 21.2078C14.9885 21.5826 15.5566 21.7701 16.2711 21.7701Z" fill="black"/>
<path d="M120.729 168.824C121.514 168.824 122.199 168.959 122.785 169.228C123.359 169.51 123.804 169.908 124.12 170.423C124.436 170.939 124.594 171.542 124.594 172.233C124.594 172.994 124.389 173.65 123.979 174.201C123.558 174.751 122.896 175.243 121.994 175.677L120.29 176.503C119.774 176.749 119.376 177.071 119.095 177.469C118.814 177.867 118.673 178.306 118.673 178.787C118.673 179.349 118.861 179.794 119.235 180.122C119.598 180.45 120.096 180.614 120.729 180.614C121.361 180.614 121.865 180.444 122.24 180.105C122.603 179.777 122.785 179.331 122.785 178.769C122.785 178.301 122.65 177.867 122.38 177.469C122.099 177.071 121.719 176.754 121.238 176.52L119.534 175.712C118.597 175.279 117.918 174.781 117.496 174.218C117.074 173.668 116.863 173.006 116.863 172.233C116.863 171.19 117.215 170.359 117.918 169.738C118.609 169.129 119.546 168.824 120.729 168.824ZM120.729 170.23C120.014 170.23 119.452 170.411 119.042 170.775C118.62 171.149 118.41 171.647 118.41 172.268C118.41 172.772 118.544 173.229 118.814 173.639C119.083 174.049 119.47 174.377 119.973 174.623L121.66 175.448C122.597 175.905 123.277 176.397 123.698 176.924C124.12 177.451 124.331 178.084 124.331 178.822C124.331 179.478 124.184 180.046 123.892 180.526C123.599 181.006 123.183 181.375 122.644 181.633C122.105 181.891 121.467 182.02 120.729 182.02C119.991 182.02 119.353 181.891 118.814 181.633C118.275 181.375 117.859 181.006 117.566 180.526C117.273 180.046 117.127 179.478 117.127 178.822C117.127 178.084 117.338 177.451 117.759 176.924C118.181 176.409 118.878 175.911 119.85 175.431L121.537 174.605C122.017 174.371 122.392 174.049 122.662 173.639C122.919 173.24 123.048 172.795 123.048 172.303C123.048 171.671 122.843 171.167 122.433 170.792C122.012 170.417 121.443 170.23 120.729 170.23Z" fill="black"/>
</svg>
