<svg width="138" height="193" viewBox="0 0 138 193" fill="none" xmlns="http://www.w3.org/2000/svg">
<rect width="137.269" height="192.177" rx="5.49077" fill="#EAEAEA"/>
<rect x="5.06836" y="4.48425" width="127.555" height="184.17" rx="5.49077" fill="#EAEAEA"/>
<path d="M13.9927 23.491L17.6298 17.6576L17.5595 17.6049C17.337 17.9328 17.0324 18.1847 16.6459 18.3604C16.2593 18.5361 15.8259 18.6239 15.3456 18.6239C14.6545 18.6239 14.0454 18.46 13.5183 18.132C13.0029 17.804 12.6046 17.3413 12.3235 16.7439C12.0424 16.1348 11.9018 15.4261 11.9018 14.6179C11.9018 13.7862 12.0717 13.0658 12.4114 12.4567C12.7511 11.8359 13.2255 11.3556 13.8346 11.0159C14.4437 10.6645 15.1524 10.4888 15.9606 10.4888C16.7806 10.4888 17.4951 10.6645 18.1042 11.0159C18.725 11.3556 19.2053 11.8359 19.545 12.4567C19.8847 13.0658 20.0545 13.7862 20.0545 14.6179C20.0545 15.2621 19.9608 15.8947 19.7734 16.5155C19.5977 17.1363 19.3283 17.7337 18.9652 18.3077L15.7498 23.491H13.9927ZM15.9782 17.3413C16.7279 17.3413 17.3311 17.0953 17.7879 16.6033C18.2448 16.0997 18.4732 15.4378 18.4732 14.6179C18.4732 13.7979 18.2448 13.142 17.7879 12.65C17.3311 12.1463 16.7279 11.8944 15.9782 11.8944C15.2285 11.8944 14.6252 12.1463 14.1684 12.65C13.7116 13.142 13.4832 13.7979 13.4832 14.6179C13.4832 15.4378 13.7116 16.0997 14.1684 16.6033C14.6252 17.0953 15.2285 17.3413 15.9782 17.3413Z" fill="#660000"/>
<path d="M123.699 169.052L120.062 174.886L120.132 174.939C120.355 174.611 120.659 174.359 121.046 174.183C121.432 174.007 121.866 173.92 122.346 173.92C123.037 173.92 123.646 174.084 124.173 174.411C124.689 174.739 125.087 175.202 125.368 175.8C125.649 176.409 125.79 177.117 125.79 177.926C125.79 178.757 125.62 179.478 125.28 180.087C124.941 180.708 124.466 181.188 123.857 181.528C123.248 181.879 122.539 182.055 121.731 182.055C120.911 182.055 120.197 181.879 119.588 181.528C118.967 181.188 118.486 180.708 118.147 180.087C117.807 179.478 117.637 178.757 117.637 177.926C117.637 177.281 117.731 176.649 117.918 176.028C118.094 175.407 118.363 174.81 118.727 174.236L121.942 169.052H123.699ZM121.714 175.202C120.964 175.202 120.361 175.448 119.904 175.94C119.447 176.444 119.219 177.106 119.219 177.926C119.219 178.746 119.447 179.402 119.904 179.893C120.361 180.397 120.964 180.649 121.714 180.649C122.463 180.649 123.067 180.397 123.523 179.893C123.98 179.402 124.209 178.746 124.209 177.926C124.209 177.106 123.98 176.444 123.523 175.94C123.067 175.448 122.463 175.202 121.714 175.202Z" fill="#660000"/>
<path d="M16.0129 43.28L9.2695 36.1899L16.0129 29.147L22.7563 36.1899L16.0129 43.28Z" fill="#660000"/>
<path d="M121.584 164.992L114.84 157.902L121.584 150.859L128.327 157.902L121.584 164.992Z" fill="#660000"/>
<path d="M35.9185 53.7582L23.2367 40.4244L35.9185 27.1795L48.6002 40.4244L35.9185 53.7582Z" fill="#660000"/>
<path d="M35.9185 91.6446L23.2367 78.3108L35.9185 65.0659L48.6002 78.3108L35.9185 91.6446Z" fill="#660000"/>
<path d="M68.5886 109.378L55.9069 96.0443L68.5886 82.7994L81.2704 96.0443L68.5886 109.378Z" fill="#660000"/>
<path d="M102.357 166.594L89.675 153.26L102.357 140.015L115.039 153.26L102.357 166.594Z" fill="#660000"/>
<path d="M102.357 129.256L89.675 115.923L102.357 102.678L115.039 115.923L102.357 129.256Z" fill="#660000"/>
<path d="M102.357 91.6446L89.675 78.3108L102.357 65.0659L115.039 78.3108L102.357 91.6446Z" fill="#660000"/>
<path d="M102.357 54.0328L89.675 40.699L102.357 27.454L115.039 40.699L102.357 54.0328Z" fill="#660000"/>
<path d="M35.9185 166.594L23.2367 153.26L35.9185 140.015L48.6002 153.26L35.9185 166.594Z" fill="#660000"/>
<path d="M35.9185 129.256L23.2367 115.923L35.9185 102.678L48.6002 115.923L35.9185 129.256Z" fill="#660000"/>
</svg>
