<svg width="138" height="193" viewBox="0 0 138 193" fill="none" xmlns="http://www.w3.org/2000/svg">
<rect width="137.269" height="192.177" rx="5.49077" fill="#EAEAEA"/>
<rect x="5.0686" y="4.48425" width="127.555" height="184.17" rx="5.49077" fill="#EAEAEA"/>
<path d="M13.2857 24L16.9228 18.1666L16.8525 18.1139C16.6299 18.4419 16.3254 18.6937 15.9388 18.8694C15.5523 19.0451 15.1189 19.133 14.6386 19.133C13.9475 19.133 13.3384 18.969 12.8113 18.641C12.2959 18.313 11.8976 17.8503 11.6165 17.2529C11.3354 16.6438 11.1948 15.9351 11.1948 15.1269C11.1948 14.2952 11.3646 13.5748 11.7043 12.9657C12.044 12.3449 12.5184 11.8647 13.1275 11.525C13.7367 11.1735 14.4453 10.9978 15.2536 10.9978C16.0735 10.9978 16.7881 11.1735 17.3972 11.525C18.018 11.8647 18.4983 12.3449 18.838 12.9657C19.1776 13.5748 19.3475 14.2952 19.3475 15.1269C19.3475 15.7712 19.2538 16.4037 19.0664 17.0245C18.8907 17.6453 18.6213 18.2427 18.2581 18.8167L15.0427 24H13.2857ZM15.2711 17.8503C16.0208 17.8503 16.6241 17.6043 17.0809 17.1124C17.5377 16.6087 17.7662 15.9469 17.7662 15.1269C17.7662 14.307 17.5377 13.651 17.0809 13.159C16.6241 12.6553 16.0208 12.4035 15.2711 12.4035C14.5215 12.4035 13.9182 12.6553 13.4614 13.159C13.0046 13.651 12.7761 14.307 12.7761 15.1269C12.7761 15.9469 13.0046 16.6087 13.4614 17.1124C13.9182 17.6043 14.5215 17.8503 15.2711 17.8503Z" fill="#660000"/>
<path d="M123.714 169L120.077 174.833L120.148 174.886C120.37 174.558 120.675 174.306 121.061 174.131C121.448 173.955 121.881 173.867 122.361 173.867C123.052 173.867 123.662 174.031 124.189 174.359C124.704 174.687 125.102 175.15 125.384 175.747C125.665 176.356 125.805 177.065 125.805 177.873C125.805 178.705 125.635 179.425 125.296 180.034C124.956 180.655 124.482 181.135 123.872 181.475C123.263 181.826 122.555 182.002 121.746 182.002C120.926 182.002 120.212 181.826 119.603 181.475C118.982 181.135 118.502 180.655 118.162 180.034C117.822 179.425 117.653 178.705 117.653 177.873C117.653 177.229 117.746 176.596 117.934 175.975C118.109 175.355 118.379 174.757 118.742 174.183L121.957 169H123.714ZM121.729 175.15C120.979 175.15 120.376 175.396 119.919 175.888C119.462 176.391 119.234 177.053 119.234 177.873C119.234 178.693 119.462 179.349 119.919 179.841C120.376 180.345 120.979 180.597 121.729 180.597C122.479 180.597 123.082 180.345 123.539 179.841C123.995 179.349 124.224 178.693 124.224 177.873C124.224 177.053 123.995 176.391 123.539 175.888C123.082 175.396 122.479 175.15 121.729 175.15Z" fill="#660000"/>
<path d="M35.3845 87.7135C35.5405 87.8057 35.7269 87.8552 35.9181 87.8552C36.1092 87.8552 36.2956 87.8057 36.4516 87.7135L35.9187 87.085L36.4529 87.7135L36.4627 87.7074L36.4885 87.692L36.587 87.6324C36.6723 87.581 36.7934 87.5061 36.9501 87.4075C38.779 86.2556 40.5054 84.9945 42.1156 83.6342C43.5285 82.4346 44.9649 81.0327 46.0529 79.5456C47.1359 78.0666 47.9187 76.4398 47.9187 74.8089C47.9187 72.873 47.1987 71.3601 45.9249 70.3331C44.6572 69.3123 42.9464 68.8552 41.1495 68.8552C39.0264 68.8552 37.1519 69.7107 35.9187 71.0294C34.6855 69.7107 32.8098 68.8552 30.6879 68.8552C26.8972 68.8552 23.9187 71.5656 23.9187 74.8089C23.9187 76.4398 24.7027 78.0656 25.7845 79.5456C26.8725 81.0327 28.3089 82.4346 29.7218 83.6352C31.4385 85.0845 33.2868 86.4209 35.2504 87.6324L35.3489 87.692L35.3747 87.7074L35.3845 87.7135Z" fill="#660000"/>
<path d="M68.4658 105.858C68.6218 105.95 68.8082 106 68.9994 106C69.1905 106 69.3769 105.95 69.5329 105.858L69 105.23L69.5342 105.858L69.544 105.852L69.5698 105.837L69.6683 105.777C69.7536 105.726 69.8747 105.651 70.0314 105.552C71.8603 104.4 73.5867 103.139 75.1969 101.779C76.6098 100.579 78.0462 99.1775 79.1342 97.6903C80.2172 96.2114 81 94.5846 81 92.9537C81 91.0177 80.28 89.5049 79.0062 88.4779C77.7385 87.457 76.0277 87 74.2308 87C72.1077 87 70.2332 87.8555 69 89.1742C67.7668 87.8555 65.8911 87 63.7692 87C59.9785 87 57 89.7103 57 92.9537C57 94.5846 57.784 96.2104 58.8658 97.6903C59.9538 99.1775 61.3902 100.579 62.8031 101.78C64.5198 103.229 66.3681 104.566 68.3317 105.777L68.4302 105.837L68.456 105.852L68.4658 105.858Z" fill="#660000"/>
<path d="M101.823 143.946C101.979 143.854 102.165 143.804 102.357 143.804C102.548 143.804 102.734 143.854 102.89 143.946L102.357 144.574L102.891 143.946L102.901 143.952L102.927 143.967L103.025 144.027C103.111 144.078 103.232 144.153 103.389 144.252C105.217 145.404 106.944 146.665 108.554 148.025C109.967 149.225 111.403 150.627 112.491 152.114C113.574 153.593 114.357 155.22 114.357 156.851C114.357 158.786 113.637 160.299 112.363 161.326C111.096 162.347 109.385 162.804 107.588 162.804C105.465 162.804 103.59 161.949 102.357 160.63C101.124 161.949 99.2483 162.804 97.1264 162.804C93.3356 162.804 90.3572 160.094 90.3572 156.851C90.3572 155.22 91.1412 153.594 92.223 152.114C93.311 150.627 94.7473 149.225 96.1603 148.024C97.8769 146.575 99.7253 145.239 101.689 144.027L101.787 143.967L101.813 143.952L101.823 143.946Z" fill="#660000"/>
<path d="M101.823 106.609C101.979 106.517 102.165 106.467 102.357 106.467C102.548 106.467 102.734 106.517 102.89 106.609L102.357 107.237L102.891 106.609L102.901 106.615L102.927 106.63L103.025 106.69C103.111 106.741 103.232 106.816 103.389 106.915C105.217 108.067 106.944 109.328 108.554 110.688C109.967 111.888 111.403 113.29 112.491 114.777C113.574 116.256 114.357 117.882 114.357 119.513C114.357 121.449 113.637 122.962 112.363 123.989C111.096 125.01 109.385 125.467 107.588 125.467C105.465 125.467 103.59 124.612 102.357 123.293C101.124 124.612 99.2483 125.467 97.1264 125.467C93.3356 125.467 90.3572 122.757 90.3572 119.513C90.3572 117.882 91.1412 116.257 92.223 114.777C93.311 113.29 94.7473 111.888 96.1603 110.687C97.8769 109.238 99.7253 107.901 101.689 106.69L101.787 106.63L101.813 106.615L101.823 106.609Z" fill="#660000"/>
<path d="M101.823 87.7135C101.979 87.8057 102.165 87.8552 102.357 87.8552C102.548 87.8552 102.734 87.8057 102.89 87.7135L102.357 87.085L102.891 87.7135L102.901 87.7074L102.927 87.692L103.025 87.6324C103.111 87.581 103.232 87.5061 103.389 87.4075C105.217 86.2556 106.944 84.9945 108.554 83.6342C109.967 82.4346 111.403 81.0327 112.491 79.5456C113.574 78.0666 114.357 76.4398 114.357 74.8089C114.357 72.873 113.637 71.3601 112.363 70.3331C111.096 69.3123 109.385 68.8552 107.588 68.8552C105.465 68.8552 103.59 69.7107 102.357 71.0294C101.124 69.7107 99.2483 68.8552 97.1264 68.8552C93.3356 68.8552 90.3572 71.5656 90.3572 74.8089C90.3572 76.4398 91.1412 78.0656 92.223 79.5456C93.311 81.0327 94.7473 82.4346 96.1603 83.6352C97.8769 85.0845 99.7253 86.4209 101.689 87.6324L101.787 87.692L101.813 87.7074L101.823 87.7135Z" fill="#660000"/>
<path d="M101.823 50.1017C101.979 50.1939 102.165 50.2434 102.357 50.2434C102.548 50.2434 102.734 50.1939 102.89 50.1017L102.357 49.4732L102.891 50.1017L102.901 50.0955L102.927 50.0801L103.025 50.0206C103.111 49.9692 103.232 49.8942 103.389 49.7957C105.217 48.6438 106.944 47.3827 108.554 46.0223C109.967 44.8228 111.403 43.4209 112.491 41.9337C113.574 40.4548 114.357 38.828 114.357 37.1971C114.357 35.2611 113.637 33.7483 112.363 32.7213C111.096 31.7004 109.385 31.2434 107.588 31.2434C105.465 31.2434 103.59 32.0989 102.357 33.4176C101.124 32.0989 99.2483 31.2434 97.1264 31.2434C93.3356 31.2434 90.3572 33.9537 90.3572 37.1971C90.3572 38.828 91.1412 40.4538 92.223 41.9337C93.311 43.4209 94.7473 44.8228 96.1603 46.0234C97.8769 47.4727 99.7253 48.809 101.689 50.0206L101.787 50.0801L101.813 50.0955L101.823 50.1017Z" fill="#660000"/>
<path d="M35.3845 143.946C35.5405 143.854 35.7269 143.804 35.9181 143.804C36.1092 143.804 36.2956 143.854 36.4516 143.946L35.9187 144.574L36.4529 143.946L36.4627 143.952L36.4885 143.967L36.587 144.027C36.6723 144.078 36.7934 144.153 36.9501 144.252C38.779 145.404 40.5054 146.665 42.1156 148.025C43.5285 149.225 44.9649 150.627 46.0529 152.114C47.1359 153.593 47.9187 155.22 47.9187 156.851C47.9187 158.786 47.1987 160.299 45.9249 161.326C44.6572 162.347 42.9464 162.804 41.1495 162.804C39.0264 162.804 37.1519 161.949 35.9187 160.63C34.6855 161.949 32.8098 162.804 30.6879 162.804C26.8972 162.804 23.9187 160.094 23.9187 156.851C23.9187 155.22 24.7027 153.594 25.7845 152.114C26.8725 150.627 28.3089 149.225 29.7218 148.024C31.4385 146.575 33.2868 145.239 35.2504 144.027L35.3489 143.967L35.3747 143.952L35.3845 143.946Z" fill="#660000"/>
<path d="M35.3845 106.609C35.5405 106.517 35.7269 106.467 35.9181 106.467C36.1092 106.467 36.2956 106.517 36.4516 106.609L35.9187 107.237L36.4529 106.609L36.4627 106.615L36.4885 106.63L36.587 106.69C36.6723 106.741 36.7934 106.816 36.9501 106.915C38.779 108.067 40.5054 109.328 42.1156 110.688C43.5285 111.888 44.9649 113.29 46.0529 114.777C47.1359 116.256 47.9187 117.882 47.9187 119.513C47.9187 121.449 47.1987 122.962 45.9249 123.989C44.6572 125.01 42.9464 125.467 41.1495 125.467C39.0264 125.467 37.1519 124.612 35.9187 123.293C34.6855 124.612 32.8098 125.467 30.6879 125.467C26.8972 125.467 23.9187 122.757 23.9187 119.513C23.9187 117.882 24.7027 116.257 25.7845 114.777C26.8725 113.29 28.3089 111.888 29.7218 110.687C31.4385 109.238 33.2868 107.901 35.2504 106.69L35.3489 106.63L35.3747 106.615L35.3845 106.609Z" fill="#660000"/>
<path d="M15.6884 41.918C15.7794 41.9713 15.8881 42 15.9996 42C16.1111 42 16.2199 41.9713 16.3109 41.918L16 41.5541L16.3116 41.918L16.3173 41.9144L16.3324 41.9055L16.3898 41.871C16.4396 41.8413 16.5102 41.7979 16.6016 41.7408C17.6685 41.0739 18.6756 40.3438 19.6149 39.5562C20.4391 38.8617 21.2769 38.0501 21.9116 37.1891C22.5434 36.3329 23 35.3911 23 34.4469C23 33.3261 22.58 32.4502 21.8369 31.8556C21.0974 31.2646 20.0995 31 19.0513 31C17.8128 31 16.7194 31.4953 16 32.2588C15.2806 31.4953 14.1865 31 12.9487 31C10.7374 31 9 32.5691 9 34.4469C9 35.3911 9.45733 36.3323 10.0884 37.1891C10.7231 38.0501 11.5609 38.8617 12.3851 39.5568C13.3865 40.3959 14.4647 41.1696 15.6102 41.871L15.6676 41.9055L15.6827 41.9144L15.6884 41.918Z" fill="#660000"/>
<path d="M121.688 153.082C121.779 153.029 121.888 153 122 153C122.111 153 122.22 153.029 122.311 153.082L122 153.446L122.312 153.082L122.317 153.086L122.332 153.095L122.39 153.129C122.44 153.159 122.51 153.202 122.602 153.259C123.669 153.926 124.676 154.656 125.615 155.444C126.439 156.138 127.277 156.95 127.912 157.811C128.543 158.667 129 159.609 129 160.553C129 161.674 128.58 162.55 127.837 163.144C127.097 163.735 126.099 164 125.051 164C123.813 164 122.719 163.505 122 162.741C121.281 163.505 120.186 164 118.949 164C116.737 164 115 162.431 115 160.553C115 159.609 115.457 158.668 116.088 157.811C116.723 156.95 117.561 156.138 118.385 155.443C119.387 154.604 120.465 153.83 121.61 153.129L121.668 153.095L121.683 153.086L121.688 153.082Z" fill="#660000"/>
<path d="M35.4658 49.8583C35.6218 49.9505 35.8082 50 35.9994 50C36.1905 50 36.3769 49.9505 36.5329 49.8583L36 49.2298L36.5342 49.8583L36.544 49.8521L36.5698 49.8367L36.6683 49.7772C36.7536 49.7258 36.8747 49.6508 37.0314 49.5522C38.8603 48.4004 40.5867 47.1393 42.1969 45.7789C43.6098 44.5794 45.0462 43.1775 46.1342 41.6903C47.2172 40.2114 48 38.5846 48 36.9537C48 35.0177 47.28 33.5049 46.0062 32.4779C44.7385 31.457 43.0277 31 41.2308 31C39.1077 31 37.2332 31.8555 36 33.1742C34.7668 31.8555 32.8911 31 30.7692 31C26.9785 31 24 33.7103 24 36.9537C24 38.5846 24.784 40.2104 25.8658 41.6903C26.9538 43.1775 28.3902 44.5794 29.8031 45.78C31.5198 47.2293 33.3681 48.5656 35.3317 49.7772L35.4302 49.8367L35.456 49.8521L35.4658 49.8583Z" fill="#660000"/>
</svg>
