<svg width="138" height="193" viewBox="0 0 138 193" fill="none" xmlns="http://www.w3.org/2000/svg">
<rect width="137.269" height="192.177" rx="5.49077" fill="#EAEAEA"/>
<rect x="5.06824" y="4.48413" width="127.555" height="184.17" rx="5.49077" fill="#EAEAEA"/>
<path d="M21.7224 32.3558C18.7115 30.5558 17.6731 29.1154 16.9692 28C16.2642 29.1154 15.2268 30.5558 12.216 32.3558C7.08141 35.4249 11.9143 39.7078 16.1637 37.3506C15.8869 38.8135 14.942 39.88 13.9822 40.3396V40.812H19.9561V40.3396C18.9963 39.88 18.0514 38.8135 17.7746 37.3506C22.0241 39.7078 26.8569 35.4249 21.7224 32.3558Z" fill="black"/>
<path d="M44.3434 38.1876C39.3751 35.2174 37.6616 32.8405 36.5 31C35.3368 32.8405 33.6249 35.2174 28.6566 38.1876C20.184 43.252 28.1588 50.3194 35.1709 46.4296C34.7141 48.8436 33.155 50.6035 31.5712 51.3619V52.1414H41.4288V51.3619C39.845 50.6035 38.2859 48.8436 37.8291 46.4296C44.8412 50.3194 52.816 43.252 44.3434 38.1876Z" fill="black"/>
<path d="M44.3434 75.1876C39.3751 72.2174 37.6616 69.8405 36.5 68C35.3368 69.8405 33.6249 72.2174 28.6566 75.1876C20.184 80.252 28.1588 87.3194 35.1709 83.4296C34.7141 85.8436 33.155 87.6035 31.5712 88.3619V89.1414H41.4288V88.3619C39.845 87.6035 38.2859 85.8436 37.8291 83.4296C44.8412 87.3194 52.816 80.252 44.3434 75.1876Z" fill="black"/>
<path d="M44.3434 118.954C39.3751 121.924 37.6616 124.301 36.5 126.141C35.3368 124.301 33.6249 121.924 28.6566 118.954C20.184 113.889 28.1588 106.822 35.1709 110.712C34.7141 108.298 33.155 106.538 31.5712 105.779V105H41.4288V105.779C39.845 106.538 38.2859 108.298 37.8291 110.712C44.8412 106.822 52.816 113.889 44.3434 118.954Z" fill="black"/>
<path d="M44.3434 155.954C39.3751 158.924 37.6616 161.301 36.5 163.141C35.3368 161.301 33.6249 158.924 28.6566 155.954C20.184 150.889 28.1588 143.822 35.1709 147.712C34.7141 145.298 33.155 143.538 31.5712 142.779V142H41.4288V142.779C39.845 143.538 38.2859 145.298 37.8291 147.712C44.8412 143.822 52.816 150.889 44.3434 155.954Z" fill="black"/>
<path d="M76.3434 93.1876C71.3751 90.2174 69.6616 87.8405 68.5 86C67.3368 87.8405 65.6249 90.2174 60.6566 93.1876C52.184 98.252 60.1588 105.319 67.1709 101.43C66.7141 103.844 65.155 105.603 63.5712 106.362V107.141H73.4288V106.362C71.845 105.603 70.2859 103.844 69.8291 101.43C76.8412 105.319 84.816 98.252 76.3434 93.1876Z" fill="black"/>
<path d="M109.343 37.1876C104.375 34.2174 102.662 31.8405 101.5 30C100.337 31.8405 98.6249 34.2174 93.6566 37.1876C85.184 42.252 93.1588 49.3194 100.171 45.4296C99.7141 47.8436 98.155 49.6035 96.5712 50.3619V51.1414H106.429V50.3619C104.845 49.6035 103.286 47.8436 102.829 45.4296C109.841 49.3194 117.816 42.252 109.343 37.1876Z" fill="black"/>
<path d="M109.343 155.954C104.375 158.924 102.662 161.301 101.5 163.141C100.337 161.301 98.6249 158.924 93.6566 155.954C85.184 150.889 93.1588 143.822 100.171 147.712C99.7141 145.298 98.155 143.538 96.5712 142.779V142H106.429V142.779C104.845 143.538 103.286 145.298 102.829 147.712C109.841 143.822 117.816 150.889 109.343 155.954Z" fill="black"/>
<path d="M109.343 118.954C104.375 121.924 102.662 124.301 101.5 126.141C100.337 124.301 98.6249 121.924 93.6566 118.954C85.184 113.889 93.1588 106.822 100.171 110.712C99.7141 108.298 98.155 106.538 96.5712 105.779V105H106.429V105.779C104.845 106.538 103.286 108.298 102.829 110.712C109.841 106.822 117.816 113.889 109.343 118.954Z" fill="black"/>
<path d="M109.343 74.1876C104.375 71.2174 102.662 68.8405 101.5 67C100.337 68.8405 98.6249 71.2174 93.6566 74.1876C85.184 79.252 93.1588 86.3194 100.171 82.4296C99.7141 84.8436 98.155 86.6035 96.5712 87.3619V88.1414H106.429V87.3619C104.845 86.6035 103.286 84.8436 102.829 82.4296C109.841 86.3194 117.816 79.252 109.343 74.1876Z" fill="black"/>
<path d="M125.722 161.456C122.712 163.256 121.673 164.697 120.969 165.812C120.264 164.697 119.227 163.256 116.216 161.456C111.081 158.387 115.914 154.104 120.164 156.461C119.887 154.999 118.942 153.932 117.982 153.472V153H123.956V153.472C122.996 153.932 122.051 154.999 121.775 156.461C126.024 154.104 130.857 158.387 125.722 161.456Z" fill="black"/>
<path d="M14.2857 23L17.9228 17.1666L17.8525 17.1139C17.6299 17.4419 17.3254 17.6937 16.9388 17.8694C16.5523 18.0451 16.1189 18.133 15.6386 18.133C14.9475 18.133 14.3384 17.969 13.8113 17.641C13.2959 17.313 12.8976 16.8503 12.6165 16.2529C12.3354 15.6438 12.1948 14.9351 12.1948 14.1269C12.1948 13.2952 12.3646 12.5748 12.7043 11.9657C13.044 11.3449 13.5184 10.8647 14.1275 10.525C14.7367 10.1735 15.4453 9.99784 16.2536 9.99784C17.0735 9.99784 17.7881 10.1735 18.3972 10.525C19.018 10.8647 19.4983 11.3449 19.838 11.9657C20.1776 12.5748 20.3475 13.2952 20.3475 14.1269C20.3475 14.7712 20.2538 15.4037 20.0664 16.0245C19.8907 16.6453 19.6213 17.2427 19.2581 17.8167L16.0427 23H14.2857ZM16.2711 16.8503C17.0208 16.8503 17.6241 16.6043 18.0809 16.1124C18.5377 15.6087 18.7662 14.9469 18.7662 14.1269C18.7662 13.307 18.5377 12.651 18.0809 12.159C17.6241 11.6553 17.0208 11.4035 16.2711 11.4035C15.5215 11.4035 14.9182 11.6553 14.4614 12.159C14.0046 12.651 13.7761 13.307 13.7761 14.1269C13.7761 14.9469 14.0046 15.6087 14.4614 16.1124C14.9182 16.6043 15.5215 16.8503 16.2711 16.8503Z" fill="black"/>
<path d="M122.714 169L119.077 174.833L119.148 174.886C119.37 174.558 119.675 174.306 120.061 174.131C120.448 173.955 120.881 173.867 121.361 173.867C122.052 173.867 122.662 174.031 123.189 174.359C123.704 174.687 124.102 175.15 124.384 175.747C124.665 176.356 124.805 177.065 124.805 177.873C124.805 178.705 124.635 179.425 124.296 180.034C123.956 180.655 123.482 181.135 122.872 181.475C122.263 181.826 121.555 182.002 120.746 182.002C119.926 182.002 119.212 181.826 118.603 181.475C117.982 181.135 117.502 180.655 117.162 180.034C116.822 179.425 116.653 178.705 116.653 177.873C116.653 177.229 116.746 176.596 116.934 175.975C117.109 175.355 117.379 174.757 117.742 174.183L120.957 169H122.714ZM120.729 175.15C119.979 175.15 119.376 175.396 118.919 175.888C118.462 176.391 118.234 177.053 118.234 177.873C118.234 178.693 118.462 179.349 118.919 179.841C119.376 180.345 119.979 180.597 120.729 180.597C121.479 180.597 122.082 180.345 122.539 179.841C122.995 179.349 123.224 178.693 123.224 177.873C123.224 177.053 122.995 176.391 122.539 175.888C122.082 175.396 121.479 175.15 120.729 175.15Z" fill="black"/>
</svg>
