<svg width="138" height="193" viewBox="0 0 138 193" fill="none" xmlns="http://www.w3.org/2000/svg">
<rect width="137.271" height="192.18" rx="5.49086" fill="#EAEAEA"/>
<rect x="5.06846" y="4.48401" width="127.557" height="184.173" rx="5.49086" fill="#EAEAEA"/>
<path d="M68.4385 113.117L52.2286 96.0734L68.4385 79.1438L84.6483 96.0734L68.4385 113.117Z" fill="#660000"/>
<path d="M121.586 164.994L114.842 157.904L121.586 150.861L128.329 157.904L121.586 164.994Z" fill="#660000"/>
<path d="M16.0132 43.2805L9.26969 36.1902L16.0132 29.1472L22.7567 36.1902L16.0132 43.2805Z" fill="#660000"/>
<path d="M11.4379 24.7263L14.7763 11.8997H16.9024L20.2232 24.7263H18.6243L17.7809 21.3176H13.8978L13.0544 24.7263H11.4379ZM14.214 19.9822H17.4471L16.4631 16.0288C16.2757 15.2791 16.1292 14.6524 16.0238 14.1487C15.9184 13.645 15.854 13.317 15.8305 13.1648C15.8071 13.317 15.7427 13.645 15.6373 14.1487C15.5318 14.6524 15.3854 15.2733 15.198 16.0112L14.214 19.9822Z" fill="#660000"/>
<path d="M125.834 169.055L122.495 181.882H120.369L117.048 169.055H118.647L119.491 172.464H123.374L124.217 169.055H125.834ZM123.057 173.799H119.824L120.808 177.753C120.996 178.502 121.142 179.129 121.248 179.633C121.353 180.136 121.417 180.464 121.441 180.617C121.464 180.464 121.529 180.136 121.634 179.633C121.74 179.129 121.886 178.508 122.073 177.77L123.057 173.799Z" fill="#660000"/>
</svg>
