<svg width="138" height="193" viewBox="0 0 138 193" fill="none" xmlns="http://www.w3.org/2000/svg">
<rect width="137.271" height="192.18" rx="5.49086" fill="#EAEAEA"/>
<rect x="5.06842" y="4.48401" width="127.557" height="184.173" rx="5.49086" fill="#EAEAEA"/>
<path d="M11.4378 24.7263L14.7763 11.8997H16.9023L20.2232 24.7263H18.6243L17.7809 21.3176H13.8977L13.0543 24.7263H11.4378ZM14.214 19.9822H17.447L16.4631 16.0288C16.2756 15.2791 16.1292 14.6524 16.0238 14.1487C15.9184 13.645 15.8539 13.317 15.8305 13.1648C15.8071 13.317 15.7427 13.645 15.6372 14.1487C15.5318 14.6524 15.3854 15.2733 15.198 16.0112L14.214 19.9822Z" fill="#660000"/>
<path d="M125.834 169.055L122.495 181.882H120.369L117.048 169.055H118.647L119.491 172.464H123.374L124.217 169.055H125.834ZM123.057 173.799H119.824L120.808 177.753C120.996 178.502 121.142 179.129 121.248 179.633C121.353 180.136 121.417 180.464 121.441 180.617C121.464 180.464 121.529 180.136 121.634 179.633C121.74 179.129 121.886 178.508 122.073 177.77L123.057 173.799Z" fill="#660000"/>
<path d="M67.5083 108.403C67.7142 108.519 67.9602 108.582 68.2125 108.582C68.4648 108.582 68.7109 108.519 68.9168 108.403L68.2133 107.608L68.9184 108.403L68.9314 108.395L68.9655 108.375L69.0955 108.3C69.2081 108.235 69.3678 108.14 69.5747 108.016C71.9887 106.559 74.2674 104.965 76.3928 103.245C78.2577 101.728 80.1535 99.9557 81.5896 98.0755C83.0192 96.2056 84.0524 94.1487 84.0524 92.0867C84.0524 89.639 83.102 87.7263 81.4206 86.4278C79.7474 85.137 77.4893 84.5592 75.1175 84.5592C72.3152 84.5592 69.8411 85.6409 68.2133 87.3082C66.5856 85.6409 64.1098 84.5592 61.3092 84.5592C56.3057 84.5592 52.3743 87.986 52.3743 92.0867C52.3743 94.1487 53.4091 96.2043 54.8371 98.0755C56.2732 99.9557 58.169 101.728 60.0339 103.246C62.2998 105.079 64.7395 106.768 67.3312 108.3L67.4612 108.375L67.4953 108.395L67.5083 108.403Z" fill="#660000"/>
<path d="M16.1631 39.8187C16.2485 39.8671 16.3506 39.893 16.4553 39.893C16.56 39.893 16.6621 39.8671 16.7475 39.8187L16.4556 39.4889L16.7482 39.8187L16.7536 39.8155L16.7677 39.8074L16.8217 39.7761C16.8684 39.7492 16.9347 39.7099 17.0205 39.6581C18.0222 39.0538 18.9677 38.3922 19.8496 37.6786C20.6234 37.0493 21.41 36.3138 22.0059 35.5336C22.5991 34.7578 23.0278 33.9043 23.0278 33.0487C23.0278 32.0331 22.6335 31.2394 21.9358 30.7006C21.2415 30.1651 20.3046 29.9253 19.3204 29.9253C18.1577 29.9253 17.1311 30.3741 16.4556 31.0659C15.7802 30.3741 14.753 29.9253 13.5909 29.9253C11.5148 29.9253 9.88351 31.3472 9.88351 33.0487C9.88351 33.9043 10.3129 34.7572 10.9054 35.5336C11.5013 36.3138 12.2879 37.0493 13.0617 37.6791C14.0019 38.4394 15.0142 39.1405 16.0896 39.7761L16.1436 39.8074L16.1577 39.8155L16.1631 39.8187Z" fill="#660000"/>
<path d="M121.666 154.779C121.58 154.731 121.478 154.705 121.374 154.705C121.269 154.705 121.167 154.731 121.081 154.779L121.373 155.109L121.081 154.779L121.075 154.782L121.061 154.791L121.007 154.822C120.961 154.849 120.894 154.888 120.808 154.94C119.807 155.544 118.861 156.206 117.979 156.919C117.206 157.549 116.419 158.284 115.823 159.064C115.23 159.84 114.801 160.694 114.801 161.549C114.801 162.565 115.196 163.358 115.893 163.897C116.588 164.433 117.524 164.673 118.509 164.673C119.671 164.673 120.698 164.224 121.373 163.532C122.049 164.224 123.076 164.673 124.238 164.673C126.314 164.673 127.945 163.251 127.945 161.549C127.945 160.694 127.516 159.841 126.924 159.064C126.328 158.284 125.541 157.549 124.767 156.919C123.827 156.158 122.815 155.457 121.739 154.822L121.685 154.791L121.671 154.782L121.666 154.779Z" fill="#660000"/>
</svg>
