<svg width="138" height="193" viewBox="0 0 138 193" fill="none" xmlns="http://www.w3.org/2000/svg">
<rect width="137.271" height="192.18" rx="5.49086" fill="#EAEAEA"/>
<rect x="5.06842" y="4.48401" width="127.557" height="184.173" rx="5.49086" fill="#EAEAEA"/>
<path d="M11.4378 24.7263L14.7763 11.8997H16.9023L20.2232 24.7263H18.6243L17.7809 21.3176H13.8977L13.0543 24.7263H11.4378ZM14.214 19.9822H17.447L16.4631 16.0288C16.2756 15.2791 16.1292 14.6524 16.0238 14.1487C15.9184 13.645 15.8539 13.317 15.8305 13.1648C15.8071 13.317 15.7426 13.645 15.6372 14.1487C15.5318 14.6524 15.3854 15.2733 15.198 16.0112L14.214 19.9822Z" fill="black"/>
<path d="M125.834 169.055L122.495 181.882H120.369L117.048 169.055H118.647L119.491 172.464H123.374L124.217 169.055H125.834ZM123.057 173.799H119.824L120.808 177.753C120.996 178.502 121.142 179.129 121.248 179.633C121.353 180.136 121.417 180.464 121.441 180.617C121.464 180.464 121.529 180.136 121.634 179.633C121.74 179.129 121.886 178.508 122.073 177.77L123.057 173.799Z" fill="black"/>
<path d="M79.8608 91.1568C73.018 87.1068 70.6579 83.8658 69.0581 81.3562C67.456 83.8658 65.0981 87.1068 58.2553 91.1568C46.5859 98.0622 57.5697 107.699 67.2274 102.395C66.5984 105.686 64.4509 108.086 62.2696 109.12V110.183H75.8466V109.12C73.6652 108.086 71.5178 105.686 70.8887 102.395C80.5465 107.699 91.5302 98.0622 79.8608 91.1568Z" fill="black"/>
<path d="M21.0568 32.6335C18.046 30.8335 17.0075 29.3931 16.3036 28.2777C15.5987 29.3931 14.5612 30.8335 11.5504 32.6335C6.41583 35.7026 11.2487 39.9855 15.4981 37.6283C15.2213 39.0912 14.2765 40.1577 13.3167 40.6173V41.0897H19.2905V40.6173C18.3307 40.1577 17.3859 39.0912 17.1091 37.6283C21.3585 39.9855 26.1913 35.7026 21.0568 32.6335Z" fill="black"/>
<path d="M116.468 161.239C119.479 163.039 120.517 164.48 121.221 165.595C121.926 164.48 122.964 163.039 125.974 161.239C131.109 158.17 126.276 153.887 122.027 156.245C122.303 154.782 123.248 153.715 124.208 153.256V152.783H118.234V153.256C119.194 153.715 120.139 154.782 120.416 156.245C116.166 153.887 111.333 158.17 116.468 161.239Z" fill="black"/>
</svg>
